<?xml version="1.0" encoding="utf-8"?>
<!-- Generator: Adobe Illustrator 15.0.0, SVG Export Plug-In . SVG Version: 6.00 Build 0)  -->
<!DOCTYPE svg PUBLIC "-//W3C//DTD SVG 1.1//EN" "http://www.w3.org/Graphics/SVG/1.1/DTD/svg11.dtd">
<svg version="1.1" id="Layer_1" xmlns="http://www.w3.org/2000/svg" xmlns:xlink="http://www.w3.org/1999/xlink" x="0px" y="0px"
	 width="1177.92px" height="333.899px" viewBox="-380 161.08 1177.92 333.899" enable-background="new -380 161.08 1177.92 333.899"
	 xml:space="preserve">
<g>
	<path fill="#FFE400" d="M-309.68,357.641c0.604-0.583,1.163-1.518,1.439-2.399C-308.24,355.24-309.076,357.058-309.68,357.641z"/>
	<g>
		<path fill="#FFFFFF" d="M-278,293.8c-2.589-3.883-5.187-7.868-7.92-11.76c-4.979-7.086-9.755-14.329-14.641-21.601
			c-1.911-2.844-4.276-5.595-6-8.64c-24.478,0-48.962,0-73.439,0c5.146,8.574,11.575,16.579,17.279,24.72
			c10.914,15.577,21.538,31.3,32.399,46.8c5.108,7.289,10.065,14.627,15.12,21.841c2.059,2.938,4.287,7.924,6.96,10.079
			l33.601-56.399C-276.067,297.464-276.876,295.486-278,293.8z"/>
		<path fill="#FFE400" d="M-274.64,298.6c1.974-1.673,2.924-4.953,4.319-7.2C-271.717,293.647-274.64,298.6-274.64,298.6z"/>
		<path fill="#FFE400" d="M-144.56,188.92c-2.57-5.86-5.179-11.598-7.68-17.28c-1.181-2.684-2.853-8.887-4.8-10.56
			c-1.155,1.458-3.43,2.103-5.04,3.12c-3.143,1.982-6.36,3.953-9.601,6c-9.877,6.236-19.876,12.734-29.76,18.96
			c-3.242,2.042-6.456,4.021-9.6,6c-0.868,0.546-2.171,0.729-2.88,1.439c-1.254,1.257-2.771,5.241-3.841,6.96
			c-3.36,5.408-6.419,11.064-9.84,16.561c-11.204,17.996-21.688,36.714-32.88,54.72c-3.417,5.499-6.478,11.152-9.84,16.56
			c-1.396,2.247-2.347,5.527-4.319,7.2c0,0.08,0,0.16,0,0.24l-33.601,56.4c-0.276,0.883-0.835,1.816-1.439,2.399
			c0,0.08,0,0.159,0,0.239c23.438,0,46.883,0,70.319,0c0.721-0.352,1-1.94,1.44-2.641c1.671-2.649,3.303-5.403,5.04-8.159
			c6.134-9.73,12.035-19.687,18.239-29.521c17.65-27.978,34.936-56.484,52.561-84.479c5.142-8.167,10.041-16.415,15.12-24.48
			c1.716-2.725,4.278-8.7,6.479-10.56C-141.279,194.762-143.287,191.822-144.56,188.92z"/>
	</g>
	<defs>
		<filter id="Adobe_OpacityMaskFilter" filterUnits="userSpaceOnUse" x="-380" y="362.44" width="239.52" height="196.799">
			<feColorMatrix  type="matrix" values="1 0 0 0 0  0 1 0 0 0  0 0 1 0 0  0 0 0 1 0"/>
		</filter>
	</defs>
	<mask maskUnits="userSpaceOnUse" x="-380" y="362.44" width="239.52" height="196.799" id="SVGID_1_">
		<g filter="url(#Adobe_OpacityMaskFilter)">
			
				<linearGradient id="SVGID_2_" gradientUnits="userSpaceOnUse" x1="-200.9084" y1="125.1946" x2="-200.9084" y2="-46.7676" gradientTransform="matrix(1 0 0 -1 -95.5298 496.6392)">
				<stop  offset="0" style="stop-color:#FFFFFF"/>
				<stop  offset="0.0896" style="stop-color:#FFFFFF;stop-opacity:0.9104"/>
				<stop  offset="1" style="stop-color:#FFFFFF;stop-opacity:0"/>
			</linearGradient>
			<rect x="-452.396" y="363.432" fill="url(#SVGID_2_)" width="311.916" height="189.641"/>
		</g>
	</mask>
	<g mask="url(#SVGID_1_)">
		<path fill="#FFFFFF" d="M-278,426.52c-2.589,3.883-5.187,7.868-7.92,11.76c-4.979,7.086-9.755,14.329-14.641,21.602
			c-1.911,2.844-4.276,5.595-6,8.64c-24.478,0-48.962,0-73.439,0c5.146-8.574,11.575-16.579,17.279-24.72
			c10.914-15.578,21.538-31.301,32.399-46.801c5.108-7.289,10.065-14.627,15.12-21.84c2.059-2.938,4.287-7.925,6.96-10.08
			l33.601,56.399C-276.067,422.854-276.876,424.833-278,426.52z"/>
		<path fill="#FFE400" d="M-274.64,421.72c1.974,1.673,2.924,4.953,4.319,7.199C-271.717,426.673-274.64,421.72-274.64,421.72z"/>
		<path fill="#FFE400" d="M-144.56,531.399c-2.57,5.859-5.179,11.597-7.68,17.279c-1.181,2.685-2.853,8.888-4.8,10.561
			c-1.155-1.458-3.43-2.104-5.04-3.12c-3.143-1.982-6.36-3.954-9.601-6c-9.877-6.236-19.876-12.734-29.76-18.96
			c-3.242-2.041-6.456-4.021-9.6-6c-0.868-0.546-2.171-0.729-2.88-1.438c-1.254-1.258-2.771-5.241-3.841-6.961
			c-3.36-5.408-6.419-11.064-9.84-16.561c-11.204-17.995-21.688-36.714-32.88-54.72c-3.417-5.499-6.478-11.152-9.84-16.562
			c-1.396-2.245-2.347-5.525-4.319-7.198c0-0.08,0-0.16,0-0.24l-33.601-56.399c-0.276-0.884-0.835-1.817-1.439-2.4
			c0-0.08,0-0.159,0-0.239c23.438,0,46.883,0,70.319,0c0.721,0.352,1,1.94,1.44,2.641c1.671,2.649,3.303,5.403,5.04,8.159
			c6.134,9.73,12.035,19.687,18.239,29.521c17.65,27.979,34.936,56.484,52.561,84.479c5.142,8.166,10.041,16.414,15.12,24.48
			c1.716,2.725,4.278,8.699,6.479,10.56C-141.279,525.558-143.287,528.496-144.56,531.399z"/>
	</g>
	<path fill="#FFFFFF" d="M-91.52,314.92c0-10.56,0-21.121,0-31.68c19.918,0,39.842,0,59.761,0c0-6.96,0-13.922,0-20.881
		c-19.919,0-39.843,0-59.761,0c0-8.639,0-17.28,0-25.92c21.438,0,42.882,0,64.32,0c0-7.278,0-14.561,0-21.84
		c-29.917,0-59.843,0-89.76,0c0,40.716,0,81.444,0,122.16c30.877,0,61.763,0,92.64,0c0-4.879,0-9.76,0-14.64
		c0-2.239,0.36-5.389-0.24-7.2C-46.878,314.92-69.202,314.92-91.52,314.92z"/>
	<path fill="#FFFFFF" d="M-12.32,336.76c31.677,0,63.363,0,95.04,0c0-7.279,0-14.561,0-21.84c-21.358,0-42.722,0-64.08,0
		c3.098-4.711,7.462-8.691,10.8-13.199c8.158-11.021,17.273-21.146,25.44-32.161c2.027-2.732,4.696-5.186,6.72-7.92
		c4.654-6.286,10.026-12.007,14.641-18.24c1.811-2.445,4.347-6.681,6.72-8.399c0-6.799,0-13.602,0-20.4c-21.599,0-43.202,0-64.8,0
		c-6.479,0-12.961,0-19.44,0c-2.784,0-6.794-0.523-9.12,0.24c0,4.88,0,9.761,0,14.64c0,2.171-0.339,5.211,0.24,6.96
		c20.238,0,40.481,0,60.72,0c-0.697,1.934-2.696,3.255-3.84,4.8c-3.373,4.556-7.232,8.704-10.56,13.2
		C25.019,269.489,12.52,283.322,1.36,298.36c-3.028,4.082-6.525,7.861-9.6,12c-1.133,1.527-3.182,2.874-3.84,4.802
		c-0.71,1.135-0.24,4.368-0.24,6C-12.32,326.359-12.32,331.561-12.32,336.76z"/>
	<path fill="#FFE400" d="M136.72,336.76c8.479,0,16.961,0,25.44,0c0-33.438,0-66.883,0-100.32c12.238,0,24.48,0,36.72,0
		c0-7.278,0-14.561,0-21.84c-33.037,0-66.083,0-99.12,0c0,7.279,0,14.562,0,21.84c12.319,0,24.642,0,36.96,0
		C136.72,269.877,136.72,303.323,136.72,336.76z"/>
	<path fill="#FFE400" d="M316.24,333.16c-0.128-0.185-2.285-1.14-2.641-1.439c-1.285-1.094-1.953-3.639-2.399-5.521
		c-0.08-2.721-0.16-5.44-0.239-8.16c-0.485-2.257,0.31-5.604-0.24-8.16c-0.501-2.333,0.326-5.768-0.239-8.399
		c-0.9-4.187-0.721-8.099-2.16-11.521c-1.42-3.376-4.139-6.859-6.961-8.88c-1.567-1.123-3.852-1.585-5.278-2.88
		c-0.414-0.155-0.234-0.048-0.48-0.24c7.985-3.248,13.548-8.132,16.801-16.08c1.146-2.802,0.928-5.458,1.68-8.88
		c2.89-13.142-5.686-26.02-12.239-30.721c-11.227-8.051-24.063-7.68-43.199-7.68c-14.799,0-29.602,0-44.399,0
		c0,40.716,0,81.444,0,122.16c8.479,0,16.961,0,25.438,0c0-16.078,0-32.161,0-48.24c11.729-0.048,33.411-1.631,40.32,2.88
		c2.254,1.473,3.895,4.146,4.8,6.96c0.52,1.615,0.063,3.119,0.479,5.041c0.467,2.148,0.24,5.368,0.24,7.92
		c0,5.796-0.151,11.852,0.961,16.801c0.595,2.645,0.06,5.835,1.439,7.68c0.08,0.24,0.16,0.479,0.24,0.72c9.358,0,18.721,0,28.079,0
		C316.24,335.4,316.24,334.279,316.24,333.16z M286.48,260.92c-1.496,2.287-3.378,4.171-6,5.28
		c-4.317,1.824-10.139,1.68-16.319,1.68c-8.159,0-16.32,0-24.48,0c0-10.719,0-21.441,0-32.16c8.239,0,16.48,0,24.721,0
		c6.17,0,12-0.139,16.319,1.68c4.805,2.023,6.894,6.099,8.16,11.761C289.914,253.786,288.018,258.57,286.48,260.92z"/>
	<path fill="#FFE400" d="M437.199,320.2c-3.226-7.866-5.252-16.092-8.399-23.761c-1.071-2.609-1.33-5.068-2.399-7.68
		c-4.199-10.248-7.306-21.434-11.521-31.68c-1.073-2.609-1.329-5.07-2.399-7.681c-3.047-7.42-5.033-15.428-8.16-23.04
		c-1.292-3.144-3.705-7.967-4.08-11.52c-0.08,0-0.16,0-0.239,0c0-0.08,0-0.16,0-0.24c-9.84,0-19.683,0-29.521,0
		c-1.041,3.12-2.08,6.24-3.121,9.36c-3.061,7.444-5.232,15.316-8.159,23.04c-7.484,19.756-13.562,40.736-21.601,60.239
		c-2.688,6.521-4.346,13.35-6.959,19.681c-1.274,3.086-1.5,7.014-3.361,9.6c0,0.08,0,0.16,0,0.24c8.8,0,17.603,0,26.4,0
		c2.641-8.318,5.281-16.641,7.92-24.96c15.439,0,30.882,0,46.32,0c2.72,8.319,5.439,16.642,8.16,24.96c9.038,0,18.08,0,27.119,0
		C441.673,331.184,439.344,325.43,437.199,320.2z M368.8,290.92c0.654-4.201,2.673-8.448,4.08-12.24c2.597-7,4.41-14.255,6.96-21.12
		c1.351-3.639,2.311-7.328,3.6-10.8c0.549-1.475,0.59-3.158,1.44-4.32c0-0.08,0-0.16,0-0.239c1.018,1.256,1.071,3.401,1.681,5.039
		c1.413,3.812,2.482,7.669,3.84,11.761c2.348,7.079,4.539,14.438,7.199,21.6c1.141,3.067,2.987,6.863,3.359,10.32
		C390.24,290.92,379.52,290.92,368.8,290.92z"/>
	<path fill="#FFE400" d="M561.76,255.16c-2.233-8.937-4.748-16.602-9.359-23.04c-5.471-7.639-13.896-12.564-24-15.601
		c-3.163-0.95-6.711-0.941-10.08-1.68c-1.371-0.3-3.313,0.363-4.32-0.24c-12.559,0-25.12,0-37.68,0
		c-4.188,0-13.505-0.843-16.801,0.24c0,40.636,0,81.284,0,121.92c11.439,0,22.881,0,34.32,0c15.533,0,29.756,0.039,40.319-4.56
		c14.072-6.128,21.955-18.733,26.4-34.561c0.639-3.68,1.279-7.36,1.92-11.04c0.08-1.84,0.16-3.68,0.239-5.52
		c0.892-4.111,0.868-11.992,0-16.08C561.974,261.485,562.57,258.401,561.76,255.16z M537.52,280.36
		c-0.561,2.618-0.306,5.456-0.959,8.16c-2.166,8.954-5.091,17.191-11.521,21.839c-9.082,6.567-24.17,5.381-39.84,5.281
		c0-26.638,0-53.283,0-79.92c16.714-0.057,36.393-2.009,43.681,7.44c2.357,3.057,4.446,6.453,6,10.319
		c2.138,5.322,2.64,12.048,2.64,19.2C537.52,275.24,537.52,277.8,537.52,280.36z"/>
	<path fill="#FFE400" d="M675.039,322.12c0-2.239,0.359-5.389-0.239-7.2c-22.317,0-44.643,0-66.96,0c0-10.56,0-21.121,0-31.681
		c19.918,0,39.842,0,59.76,0c0-6.959,0-13.921,0-20.88c-19.918,0-39.842,0-59.76,0c0-8.639,0-17.28,0-25.92
		c21.438,0,42.883,0,64.319,0c0-7.278,0-14.561,0-21.84c-29.917,0-59.844,0-89.76,0c0,40.716,0,81.444,0,122.16
		c30.877,0,61.763,0,92.64,0C675.039,331.881,675.039,327,675.039,322.12z"/>
	<path fill="#FFE400" d="M766.96,306.279c0,1.762,0,3.521,0,5.281c0.554,2.563-0.38,6.258,0.239,9.119
		c0.565,2.616,0.096,5.64,0.721,8.4c0.55,2.43,1.145,5.233,1.68,7.438c9.438,0,18.881,0,28.32,0
		c-0.013-5.209-1.771-3.061-3.601-5.76c-0.938-1.385-1.27-3.697-1.68-5.521c0-1.119,0-2.239,0-3.359
		c-0.443-2.059-0.019-5.01-0.24-7.44c-0.537-5.86,0.42-13.783-0.961-19.199c-1.547-6.076-3.991-10.479-8.399-13.68
		c-1.697-1.232-3.5-2.964-6-3.359c0-0.08,0-0.16,0-0.24c9.035-2.288,14.968-10.052,17.761-18.721
		c4.372-13.567-1.881-29.644-9.36-35.279c-5.057-3.813-10.387-6.512-17.52-8.4c-6.861-1.816-17.185-0.96-25.439-0.96
		c-15.599,0-31.202,0-46.801,0c0,40.716,0,81.444,0,122.16c8.479,0,16.961,0,25.439,0c0-16.078,0-32.161,0-48.24
		c13.967-0.066,37.979-2.267,43.44,5.76C766.577,297.245,766.96,301.269,766.96,306.279z M761.439,266.44
		c-4.024,1.695-9.695,1.44-15.359,1.44c-8.318,0-16.641,0-24.96,0c0-10.719,0-21.441,0-32.16c8.079,0,16.161,0,24.239,0
		c4.342,0,9.291-0.479,12.961,0.48c2.605,0.681,5.248,1.703,7.199,3.119c3.334,2.418,3.998,6.457,5.041,11.28
		c0.815,3.777-1.146,8.064-2.4,10.08C766.508,263.332,764.434,265.18,761.439,266.44z"/>
	<path fill="#FFE400" d="M-98.24,359.8c-0.631,0.386-1.708,0.028-2.64,0.24c-1.863,0.424-3.999,0.724-5.761,1.439
		c-6.588,2.679-11.667,7.865-14.399,14.399c-0.981,2.347-1.328,5.068-1.92,7.681c-0.563,2.486-0.525,6.727,0,9.119
		c0.453,2.064,0.134,3.684,0.72,5.521c2.724,8.532,7.878,14.646,16.08,17.761c2.968,1.128,8.478,2.718,13.2,1.681
		c11.275-2.479,17.687-7.563,21.6-17.281c2.03-5.039,2.2-13.814,0.72-19.438C-74.034,368.017-81.854,359.61-98.24,359.8z
		 M-77.6,393.641c-0.483,2.129-0.855,4.563-1.68,6.479c-2.8,6.514-7.618,9.563-15.36,11.28c-4.407,0.978-8.962-1.202-11.279-2.641
		c-7.847-4.869-12.481-16.844-8.4-29.521c1.615-5.016,5.232-9.514,9.84-11.52c1.533-0.668,3.842-0.538,5.28-1.441
		c13.477-0.13,18.382,5.5,21.12,16.08C-77.333,385.248-76.815,390.185-77.6,393.641z"/>
	<path fill="#FFE400" d="M4.24,360.76c0,2.641,0,5.281,0,7.92c2.153,0.021,5.229,0.344,6.96-0.24c0.02-2.354,0.404-5.761-0.24-7.68
		C8.72,360.76,6.48,360.76,4.24,360.76z"/>
	<path fill="#FFE400" d="M126.64,360.76c0,2.24,0,4.48,0,6.721c6.079,0,12.161,0,18.24,0c0,16.398,0,32.801,0,49.199
		c2.479,0,4.96,0,7.439,0c0-16.398,0-32.801,0-49.199c4.32,0,8.642,0,12.96,0c1.834,0,4.327,0.234,5.761-0.239
		c0.019-2.021,0.302-4.878-0.24-6.48C156.082,360.76,141.358,360.76,126.64,360.76z"/>
	<path fill="#FFE400" d="M273.04,361c0,6.559,0,13.121,0,19.68c-2.004-1.444-3.216-3.502-5.762-4.56
		c-2.313-0.962-6.631-0.95-9.118-0.24c-8.605,2.457-11.166,7.775-13.2,16.8c-0.563,2.496-0.286,6.94,0.24,9.12
		c2.01,8.326,9.519,19.308,21.6,15.359c3.065-1.002,4.282-3.301,6.479-5.04c0-0.159,0-0.319,0-0.479c0.08,0,0.16,0,0.24,0
		c0,1.68,0,3.358,0,5.039c2.16,0,4.32,0,6.48,0c0-18.639,0-37.281,0-55.92C277.846,360.74,274.77,360.417,273.04,361z
		 M273.04,403.96c-1.418,4.376-4.328,7.102-9.12,8.159c-2.135,0.473-4.318-0.806-5.521-1.439c-5.263-2.781-8.223-11.687-6-20.16
		c0.809-3.082,2.461-6.574,4.801-8.16c1.203-0.814,3.02-0.633,4.318-1.438c7.491-0.101,10.158,4.351,11.76,10.08
		c0.08,1.12,0.16,2.239,0.24,3.358C274.147,397.188,273.838,401.495,273.04,403.96z"/>
	<path fill="#FFE400" d="M290.8,368.68c2.24,0,4.479,0,6.72,0c0-2.639,0-5.279,0-7.92c-2.239,0-4.479,0-6.72,0
		C290.8,363.4,290.8,366.041,290.8,368.68z"/>
	<path fill="#FFE400" d="M460.72,361c-1.558,1.961-2.8,8.492-3.84,11.278c-2.981,7.994-5.661,16.497-8.641,24.48
		c-1.168,3.133-2.114,9.135-3.84,11.52c0,0.16,0,0.32,0,0.48c-5.279-15.998-10.561-32.002-15.84-48
		c-3.372-0.021-8.408-0.719-11.281,0.24c0,18.559,0,37.121,0,55.68c2.4,0,4.801,0,7.201,0c0-15.838,0-31.682,0-47.52
		c0.752,0.93,0.739,2.358,1.199,3.6c1.354,3.648,2.416,7.441,3.84,11.28c2.59,6.978,4.562,14.256,7.2,21.359
		c1.312,3.529,3.074,7.458,3.841,11.279c1.744,0.032,5.506,0.541,6.719-0.24c1.746-2.197,2.611-8.293,3.841-11.279
		c3.108-7.549,5.286-15.973,8.399-23.52c1.392-3.373,1.854-8.536,3.84-11.281c0-0.158,0-0.318,0-0.479c0.08,0,0.16,0,0.24,0
		c0,15.599,0,31.201,0,46.8c2.32,0,4.641,0,6.961,0c0-18.639,0-37.281,0-55.92C468.559,360.732,461.914,360.241,460.72,361z"/>
	<path fill="#FFE400" d="M550.96,380.92c-0.08,0-0.16,0-0.24,0c-1.56-4.539-10.422-7.239-16.561-4.8
		c-6.821,2.711-9.498,8.229-11.279,16.08c-0.397,1.754-0.276,4.174,0,5.521c0.428,2.081-0.023,3.688,0.479,5.52
		c1.721,6.25,5.165,10.813,10.801,13.199c2.729,1.157,7.978,1.838,11.279,0.48c2.628-1.08,3.922-3.197,5.761-5.04
		c0-0.08,0-0.159,0-0.239c0.079,0,0.159,0,0.239,0c0,1.68,0,3.358,0,5.039c2.16,0,4.32,0,6.48,0c0-18.638,0-37.281,0-55.92
		c-2.32,0-4.642,0-6.96,0C550.96,367.479,550.96,374.201,550.96,380.92z M548.32,408.76c-1.31,1.753-3.979,2.808-6.479,3.359
		c-2.112,0.467-4.385-0.769-5.521-1.439c-1.27-0.75-2.528-1.258-3.359-2.4c-2.643-3.628-4.373-11.68-2.641-18
		c0.823-3.002,2.422-6.432,4.8-7.92c1.167-0.729,2.877-0.668,4.08-1.438c3.013-0.044,5.456,0.43,7.2,1.68
		C552.725,387.136,553.127,402.325,548.32,408.76z"/>
	<path fill="#FFE400" d="M642.159,391.24c7.039,0,14.08,0,21.12,0c2.985,0,7.325,0.59,9.84-0.239c0-2.16,0-4.32,0-6.48
		c-10.318,0-20.642,0-30.96,0c0-5.679,0-11.359,0-17.039c10.959,0,21.921,0,32.88,0c0-2.239,0-4.479,0-6.721
		c-13.438,0-26.882,0-40.319,0c0,18.639,0,37.282,0,55.92c13.919,0,27.842,0,41.761,0c0-2.16,0-4.32,0-6.479
		c-11.439,0-22.882,0-34.32,0C642.159,403.881,642.159,397.56,642.159,391.24z"/>
	<path fill="#FFE400" d="M-8.72,409.96c-0.966-2.415-0.72-6.404-0.72-9.841c0-6.158,0-12.32,0-18.479c2.24,0,4.48,0,6.72,0
		c0-1.76,0-3.521,0-5.281c-2.239,0-4.479,0-6.72,0c0-4.719,0-9.438,0-14.158c-2.673,0.761-4.285,3.133-6.96,3.84
		c0,3.438,0,6.88,0,10.318c-1.68,0-3.359,0-5.04,0c0,1.761,0,3.521,0,5.281c1.681,0,3.36,0,5.04,0c0,7.199,0,14.4,0,21.6
		c0,3.976-0.204,8.601,1.44,11.039c2.417,3.588,8.376,3.006,13.2,2.4c-0.087-2.244-0.712-3.701-0.721-6
		C-5.115,410.74-6.92,411.004-8.72,409.96z"/>
	<path fill="#FFE400" d="M-40.16,375.641c-2.728-0.68-6.554-0.156-8.64,0.719c-2.472,1.037-3.75,3.086-5.521,4.802
		c0,0.079,0,0.159,0,0.239c-0.08,0-0.16,0-0.24,0c0-1.68,0-3.359,0-5.041c-2.08,0-4.16,0-6.239,0c0,18.64,0,37.283,0,55.92
		c2.318,0,4.64,0,6.96,0c0-6.559,0-13.12,0-19.68c2.392,1.725,3.565,3.771,6.96,4.801c3.184,0.965,7.468-0.07,9.6-0.961
		c7.473-3.12,9.303-7.662,11.28-16.319c0.396-1.734,0.703-5.568,0.239-7.681C-27.899,382.684-30.539,378.037-40.16,375.641z
		 M-33.44,403.48c-1.467,4.615-4.341,7.51-9.359,8.64c-2.222,0.499-4.579-0.733-5.761-1.439c-4.355-2.604-6-6.928-6-13.92
		c0.08-1.68,0.16-3.359,0.24-5.039c1.038-4.105,3.115-8.309,6.48-10.08c1.009-0.532,2.398-0.361,3.359-0.961
		c6.857-0.069,9.719,4.16,11.28,9.36c0.08,1.04,0.16,2.08,0.24,3.12C-32.282,396.179-32.605,400.854-33.44,403.48z"/>
	<path fill="#FFE400" d="M54.16,383.561c-3.529-5.699-9.466-8.29-18.96-8.16c-1.296,0.818-3.362,0.6-4.801,1.199
		c-4.592,1.92-8.323,5.794-10.08,10.562c-0.682,1.851-0.771,4.065-1.199,6c-0.417,1.881-0.09,5.211,0.239,6.72
		c0.44,2.014,0.153,3.519,0.721,5.279c1.899,5.9,5.667,9.019,11.279,11.279c2.035,0.82,5.993,1.954,9.36,1.201
		c7.875-1.763,13.007-5.457,15.36-12.721c0.623-1.924,0.232-3.543,0.72-5.761c0.47-2.139,0.528-5.932,0-8.159
		C56.188,388.417,55.43,385.61,54.16,383.561z M48.64,404.92c-1.745,4.174-4.663,6.114-9.6,7.199c-2.727,0.6-5.563-0.979-6.96-1.92
		c-5.01-3.365-7.775-12.027-5.28-20.399c0.842-2.824,2.801-5.732,5.04-7.2c1.372-0.897,3.34-0.77,4.8-1.68
		c7.239-0.095,10.985,3.533,12.72,8.88c0.488,1.504,0.101,2.839,0.48,4.56C50.579,397.7,49.723,402.329,48.64,404.92z"/>
	<path fill="#FFE400" d="M71.68,381.88c-0.16,0-0.32,0-0.479,0c0-1.84,0-3.681,0-5.521c-2.08,0-4.16,0-6.24,0
		c0,13.439,0,26.882,0,40.32c2.319,0,4.64,0,6.96,0c0-6.398,0-12.801,0-19.199c0-4.457-0.049-8.972,1.68-11.76
		c1.037-1.674,2.622-2.53,4.561-3.361c1.43-0.61,4.376-1.604,6.96-0.959c2.063,0.515,4.241,2.054,5.04,3.84
		c1.251,2.804,0.96,7.062,0.96,11.039c0,6.8,0,13.603,0,20.4c2.319,0,4.64,0,6.96,0c0.091-10.451,1.596-31.125-2.641-36.959
		C90.786,373.309,74.134,374.236,71.68,381.88z"/>
	<path fill="#FFE400" d="M196.48,376.12c-7.379-2.805-9.075,2.019-12.24,5.521c0,0.159,0,0.319,0,0.479c-0.079,0-0.159,0-0.239,0
		c0-1.92,0-3.842,0-5.762c-2.16,0-4.32,0-6.48,0c0,13.439,0,26.882,0,40.32c2.32,0,4.641,0,6.96,0
		c-0.089-9.59-1.488-25.467,2.4-31.199c1.845-2.72,6.831-4.756,10.08-1.681c1.57-0.813,1.6-4.356,2.64-5.76
		C199.223,376.66,197.753,376.604,196.48,376.12z"/>
	<path fill="#FFE400" d="M236.8,393.88c0.001-4.156,0.331-8.854-0.96-12c-3.167-7.72-20.132-8.395-27.36-3.602
		c-1.93,1.281-3.856,3.769-4.8,6c-0.461,1.093-0.346,2.427-0.96,3.361c0,0.08,0,0.159,0,0.239c2.32,0.24,4.641,0.479,6.96,0.72
		c0.415-6.429,8.828-9.813,15.839-6.959c1.531,0.623,3.195,2.078,3.84,3.6c0.273,0.645,0.154,1.408,0.48,1.921
		c0.031,1.133,0.229,3.125-0.24,3.84c-1.971,1.493-5.354,1.02-8.16,1.68c-9.021,2.125-17.4,1.992-19.68,10.801
		c-0.543,2.1-0.104,4.594,0.479,6.24c3.266,9.219,15.812,9.856,24,4.799c1.387-0.855,2.879-1.389,3.841-2.64
		c0.823,1.043,1.178,3.646,1.68,4.8c2.4,0,4.801,0,7.2,0C236.363,411.164,236.799,402.229,236.8,393.88z M223.12,411.159
		c-4.038,1.74-10.982,1.582-13.2-1.68c-0.771-1.135-1.253-3.396-0.72-5.041c1.888-5.818,9.716-5.039,15.6-6.719
		c1.64-0.469,3.354-0.335,4.56-1.201c0.16,0,0.32,0,0.48,0C229.991,404.23,228.328,408.913,223.12,411.159z"/>
	<path fill="#FFE400" d="M314.561,381.88c-0.08,0-0.16,0-0.24,0c0-1.84,0-3.681,0-5.521c-2.08,0-4.16,0-6.24,0
		c0,13.439,0,26.882,0,40.32c2.32,0,4.642,0,6.961,0c-0.085-8.32-1.26-26.724,1.92-31.438c0.672-0.997,1.82-1.499,2.88-2.16
		c1.643-1.025,5.019-2.583,8.399-1.681c2.438,0.65,4.373,2.359,5.279,4.561c1.115,2.708,0.721,6.934,0.721,10.56
		c0,6.72,0,13.441,0,20.16c2.319,0,4.642,0,6.96,0c0-7.6,0-15.201,0-22.8c0-4.343,0.218-9.379-1.439-12.239
		C334.747,372.987,319.447,373.578,314.561,381.88z"/>
	<path fill="#FFE400" d="M378.4,381.16c-2.096-1.435-3.447-3.717-6-4.802c-1.103-0.468-2.475-0.698-3.601-0.959
		c-3.44-0.796-7.418,0.465-9.36,1.439c-7.565,3.801-8.521,8.479-10.56,17.76c-0.5,2.277,0.251,5.496,0.72,7.2
		c1.918,6.969,4.779,11.638,11.041,14.16c6.376,2.568,14.34-0.513,16.799-4.319c0.08,0,0.16,0,0.24,0
		c0.14,7.268-0.734,13.016-5.76,15.119c-6.209,2.6-14.501,0.162-14.881-5.761c-1.771-0.034-4.953-0.135-6.239-0.96
		c-0.159,0-0.319,0-0.479,0c-0.012,7.007,3.664,10.51,8.88,12.239c7.012,2.328,18.055,0.103,21.36-4.079
		c4.006-5.066,4.08-12.813,4.08-22.08c0-9.918,0-19.841,0-29.761c-2.08,0-4.16,0-6.24,0C378.4,377.96,378.4,379.561,378.4,381.16z
		 M377.199,403.96c-1.515,3.801-4.536,6.197-8.88,7.199c-3.127,0.722-5.707-1.083-7.2-2.16c-0.826-0.596-1.816-1.112-2.399-1.92
		c-2.194-3.036-3.837-10.538-2.399-16.079c0.906-3.493,2.612-6.894,5.279-8.642c1.157-0.758,2.873-0.666,4.08-1.438
		c9.176-0.131,12.481,6.244,12.479,15.358C378.159,399.204,378.068,401.781,377.199,403.96z"/>
	<path fill="#FFE400" d="M514.72,405.641c0.001-4.856,0.702-10.966-0.239-15.361c0-1.52,0-3.038,0-4.559
		c-0.416-1.876-0.729-4.107-1.681-5.521c-2.579-3.821-11.993-6.307-19.2-4.561c-6.727,1.629-12.093,4.851-12.959,12.239
		c1.343,0.042,3.832,0.093,4.799,0.72c0.641,0,1.281,0,1.92,0c0.24-0.879,0.48-1.76,0.721-2.64c0.468-1.096,1.695-2.702,2.641-3.36
		c3.206-2.231,11.226-2.277,14.399,0c2.173,1.56,1.415,3.313,2.641,5.28c0.028,0.982,0.153,2.525-0.24,3.12
		c-2.314,1.756-6.578,1.151-9.84,1.92c-8.241,1.938-15.744,2.246-18,10.08c-2.621,9.104,6.917,16.75,16.32,14.641
		c4.76-1.068,9.173-2.745,12-5.761c0.479,1.601,0.96,3.199,1.438,4.8c2.4,0,4.801,0,7.201,0c-0.537-2.041-1.395-4.062-1.921-6.479
		C514.72,408.68,514.72,407.159,514.72,405.641z M500.32,411.4c-4.593,1.95-10.948,0.744-12.961-2.641
		c-0.887-1.492-0.592-4.984,0.24-6.24c2.524-3.809,9.154-2.909,14.16-4.319c1.855-0.521,3.987-1.464,6-1.681
		C507.924,404.672,505.868,409.043,500.32,411.4z"/>
	<path fill="#FFE400" d="M595.6,378.04c-1.463-0.959-3.534-1.638-5.279-2.16c-11.499-3.448-19.692,4.405-22.561,11.521
		c-1.004,2.493-0.535,4.861-1.199,7.92c-0.691,3.173,0.28,7.609,1.199,10.08c2.877,7.73,6.251,9.967,14.881,12
		c2.459,0.579,6.615,0.433,8.879-0.24c4.496-1.334,8.117-4.274,10.32-7.92c0.561-1.438,1.12-2.881,1.68-4.319c0-0.16,0-0.32,0-0.48
		c-2.399-0.239-4.8-0.479-7.199-0.719c-0.776,5.74-7.998,10.43-14.881,7.68c-4.656-1.861-7.996-6.66-7.92-13.2
		c10.08,0,20.162,0,30.24,0C603.845,388.66,601.289,381.767,595.6,378.04z M580.24,392.68c-1.685,0-5.061,0.496-6.239-0.24
		c-1.103-1.867,2.39-6.936,3.358-7.92c6.981-7.082,19.399-2.932,19.201,8.16C591.12,392.68,585.68,392.68,580.24,392.68z"/>
	<path fill="#FFE400" d="M718.72,393.4c0.001-4.718,0.226-10.031-1.681-12.961c-2.63-4.039-11.952-6.584-19.439-4.799
		c-6.286,1.498-12.449,4.858-12.72,12.239c2.238,0.24,4.479,0.479,6.72,0.72c0.413-6.396,8.852-9.828,15.84-6.959
		c2.9,1.189,2.729,2.729,4.32,5.039c0.031,1.234,0.281,3.523-0.24,4.32c-1.977,1.508-5.356,0.985-8.16,1.68
		c-8.558,2.119-16.815,1.879-19.438,9.84c-2.947,8.947,6.313,17.428,16.08,15.121c5.784-1.367,7.786-2.999,12-5.521
		c0-0.08,0-0.16,0-0.239c0.079,0,0.159,0,0.239,0c0.267,1.322,0.479,3.148,1.199,4.079c0.08,0.24,0.16,0.479,0.24,0.721
		c2.399,0,4.801,0,7.2,0C718.238,411.052,718.719,401.858,718.72,393.4z M705.039,411.159c-7.08,3.088-14.661,0.997-13.92-7.438
		c1.939-2.066,2.065-3.035,5.28-4.08c4.398-1.431,11.585-0.707,14.88-3.121c0.159,0,0.319,0,0.479,0
		C711.911,404.327,710.289,408.87,705.039,411.159z"/>
	<path fill="#FFE400" d="M737.199,390.279c-1.027-0.438-1.751-1.359-2.64-1.92c-0.198-1.315-0.742-2.543,0-3.6
		c0.589-3.291,7.348-4.761,11.52-3.6c2.994,0.834,5.423,2.977,5.761,6.479c2.239-0.32,4.479-0.641,6.721-0.961
		c-1.682-14.82-27.717-15.219-30.961-1.68c-2.543,10.619,10.354,12.856,17.041,14.88c3.107,0.939,6.82,0.952,7.92,3.841
		c0.783,1.026,0.508,3.44-0.24,4.318c-1.087,3.212-7.153,5.008-11.76,3.841c-3.855-0.977-7.116-3.463-7.201-8.159
		c-1.514,0.014-5.516,0.342-6.479,0.959c-0.16,0-0.319,0-0.479,0c1.173,6.119,4.072,10.043,9.359,12
		c9.459,3.502,20.75-0.736,23.521-7.199c1.308-3.05,0.842-8.477-0.72-10.801C754.912,393.256,743.731,393.065,737.199,390.279z"/>
	<path fill="#FFE400" d="M4.24,416.68c2.318,0,4.64,0,6.96,0c0-13.438,0-26.881,0-40.32c-2.32,0-4.642,0-6.96,0
		C4.24,389.799,4.24,403.24,4.24,416.68z"/>
	<path fill="#FFE400" d="M290.8,416.68c2.24,0,4.479,0,6.72,0c0-13.438,0-26.881,0-40.32c-2.239,0-4.479,0-6.72,0
		C290.8,389.799,290.8,403.24,290.8,416.68z"/>
</g>
<path fill="#FFE400" d="M794.561,376.359c-0.747,0.418-2.342,6.855-2.881,8.16c-2.011,4.869-3.428,10.071-5.521,15.121
	c-1.114,2.688-2.567,5.996-2.88,9.359c-0.08,0-0.16,0-0.24,0c-0.98-4.387-2.521-8.453-4.08-12.24
	c-2.777-6.756-4.712-13.657-7.199-20.4c-2.479,0-4.96,0-7.439,0c3.744,8.793,6.385,17.934,10.08,26.881
	c1.434,3.474,2.564,7.145,4.08,10.801c0.268,0.646,1.06,1.685,1.199,2.398c0.225,1.146-0.883,2.593-1.199,3.36
	c-2.559,6.194-3.276,6.982-11.28,6.239c0.239,2.159,0.479,4.32,0.72,6.479c1.341,0.113,2.669,0.467,3.841,0.721
	c2.498,0.54,5.19-1.047,6.479-1.92c4.939-3.346,5.954-9.935,8.4-15.84c3.592-8.676,6.729-17.979,10.318-26.641
	c1.434-3.457,2.555-9.528,4.561-12.24c0-0.08,0-0.16,0-0.24C799.199,376.359,796.88,376.359,794.561,376.359z"/>
</svg>
