<?xml version="1.0" encoding="utf-8"?>
<!-- Generator: Adobe Illustrator 15.0.0, SVG Export Plug-In . SVG Version: 6.00 Build 0)  -->
<!DOCTYPE svg PUBLIC "-//W3C//DTD SVG 1.1//EN" "http://www.w3.org/Graphics/SVG/1.1/DTD/svg11.dtd">
<svg version="1.1" id="Layer_1" xmlns="http://www.w3.org/2000/svg" xmlns:xlink="http://www.w3.org/1999/xlink" x="0px" y="0px"
	 width="552.756px" height="566.929px" viewBox="0 0 552.756 566.929" enable-background="new 0 0 552.756 566.929"
	 xml:space="preserve">
<path fill="#FFFFFF" d="M48.86,407.459l-1.753-2.86c-0.369-0.607-0.444-1.26-0.168-1.938l7.158-18.253l-0.043-0.064l-13.029,8.053
	c-0.738,0.457-1.209,0.286-1.623-0.388l-1.917-3.131c-0.474-0.773-0.512-1.212,0.291-1.71l21.237-13.132
	c0.871-0.537,1.288-0.237,1.721,0.471l1.73,2.828c0.412,0.673,0.416,1.134,0.14,1.814l-7.258,18.313l0.043,0.065l13.129-8.115
	c0.738-0.456,1.199-0.23,1.611,0.444l1.999,3.267c0.538,0.873,0.109,1.23-0.461,1.583l-21.171,13.087
	C49.625,408.333,49.232,408.067,48.86,407.459 M80.93,411.585l-1.291-1.693l-15.287,11.79l1.199,1.567
	c0.382,0.501,0.201,1.042-0.236,1.376l-1.656,1.275c-0.371,0.29-0.907,0.304-1.242-0.134l-6.153-8.059
	c-0.361-0.469-0.259-1.048,0.087-1.313l1.685-1.298c0.56-0.434,1.05-0.312,1.408,0.158l1.103,1.439l15.284-11.787l-1.27-1.661
	c-0.383-0.502-0.2-1.044,0.238-1.378l1.653-1.277c0.373-0.285,0.909-0.301,1.243,0.139l6.418,8.398
	c0.359,0.473,0.255,1.049-0.089,1.314l-1.683,1.301C81.78,412.175,81.292,412.057,80.93,411.585 M81.122,447.136l-10.126-11.043
	c-0.559-0.612-0.708-1.063,0.072-1.786l18.339-16.979c0.523-0.479,1.05-0.486,1.558,0.065l2.691,2.935
	c0.587,0.641,0.595,1.063-0.07,1.676l-15.328,14.191l6.794,7.412c0.506,0.553,0.427,1.107-0.094,1.589l-2.199,2.036
	C82.124,447.822,81.576,447.629,81.122,447.136 M104.148,468.74c-1.989-1.613-4.084-3.978-5.503-6.301
	c-0.365-0.552-0.344-0.891-0.123-1.17c0.123-0.153,0.334-0.288,0.544-0.42l2.83-1.819c0.338-0.232,0.714-0.386,1.111-0.063
	c0.153,0.125,0.282,0.277,0.42,0.548c1.031,1.799,2.446,3.561,4.005,4.83c1.284,1.042,3.451,1.685,4.661,0.179
	c0.94-1.169,0.494-2.498-0.11-3.699l-2.562-5.236c-1.424-2.883-1.388-6.007,0.692-8.589c3.166-3.935,8.86-2.963,12.438-0.056
	c2.201,1.789,3.777,3.73,5.035,6.127c0.317,0.611,0.327,0.977,0.104,1.254c-0.098,0.124-0.283,0.227-0.493,0.361l-2.879,1.624
	c-0.473,0.277-0.781,0.282-1.056,0.058c-0.152-0.123-0.286-0.332-0.427-0.602c-0.806-1.574-2.114-3.347-3.367-4.364
	c-1.222-0.993-2.97-1.651-4.132-0.206c-0.793,0.98-0.064,2.593,0.429,3.552l2.23,4.458c1.526,3.066,1.749,5.994-0.501,8.792
	C113.929,472.42,108.338,472.147,104.148,468.74 M137.878,491.956l-3.693-2.413c-0.79-0.52-0.85-1.079-0.684-1.771l1.171-4.706
	l-1.188-0.774l-5.8-3.796l-1.152-0.753l-3.894,3.109c-0.41,0.345-0.911,0.538-1.504,0.148l-3.759-2.457
	c-0.361-0.24-0.376-0.578-0.182-0.873c0.085-0.136,0.171-0.267,0.323-0.357l21.6-16.098c0.52-0.366,1.031-0.503,1.658-0.092
	l3.394,2.219c0.659,0.431,0.829,0.965,0.714,1.506l-5.662,26.337c-0.061,0.242-0.136,0.429-0.223,0.56
	C138.74,492.141,138.338,492.256,137.878,491.956 M137.981,470.286c0.243-0.879,0.451-1.641,0.653-2.311l-0.068-0.043
	c-0.548,0.486-1.177,1.02-1.857,1.565l-6.284,5.132l5.404,3.539L137.981,470.286z M171.091,483.183
	c-0.433,0.666-0.979,0.603-1.71,0.219l-6.134-3.221l-9.821,18.876c-0.4,0.77-0.579,0.857-1.275,0.49l-3.94-2.069
	c-0.73-0.384-0.745-0.523-0.365-1.261l9.858-18.949l-6.378-3.35c-0.697-0.366-0.795-0.861-0.429-1.562l1.349-2.595
	c0.308-0.594,0.769-0.71,1.396-0.38l16.975,8.913l1.777,0.935c0.628,0.333,0.726,0.738,0.488,1.194
	c-0.017,0.035-0.039,0.071-0.072,0.14L171.091,483.183z M187.877,489.973l-1.972-0.798l-7.21,17.957l1.825,0.741
	c0.584,0.234,0.699,0.796,0.493,1.308l-0.78,1.94c-0.178,0.444-0.629,0.726-1.141,0.521l-9.375-3.801
	c-0.546-0.222-0.749-0.772-0.587-1.179l0.795-1.977c0.263-0.66,0.748-0.807,1.295-0.582l1.677,0.678l7.211-17.958l-1.936-0.783
	c-0.581-0.239-0.697-0.795-0.491-1.31l0.78-1.941c0.176-0.438,0.629-0.726,1.141-0.518l9.775,3.962
	c0.547,0.22,0.75,0.773,0.589,1.177l-0.797,1.978C188.905,490.047,188.423,490.198,187.877,489.973 M197.183,518.381
	c-2.447-0.74-5.275-2.132-7.462-3.741c-0.548-0.372-0.656-0.696-0.554-1.037c0.057-0.189,0.202-0.393,0.344-0.598l1.935-2.755
	c0.226-0.344,0.517-0.628,1.008-0.483c0.189,0.06,0.366,0.153,0.595,0.347c1.629,1.277,3.603,2.37,5.523,2.951
	c1.582,0.477,3.827,0.25,4.381-1.606c0.434-1.437-0.48-2.496-1.491-3.379l-4.343-3.876c-2.401-2.128-3.544-5.033-2.589-8.212
	c1.451-4.845,7.089-6.111,11.496-4.777c2.71,0.818,4.899,2.019,6.964,3.76c0.522,0.444,0.671,0.779,0.569,1.119
	c-0.047,0.152-0.178,0.317-0.321,0.521l-2.054,2.6c-0.336,0.437-0.616,0.556-0.956,0.453c-0.187-0.056-0.391-0.201-0.62-0.395
	c-1.341-1.147-3.217-2.292-4.76-2.762c-1.508-0.454-3.373-0.399-3.904,1.379c-0.364,1.211,0.916,2.424,1.733,3.126l3.739,3.277
	c2.569,2.263,3.878,4.888,2.845,8.332C207.628,518.075,202.343,519.945,197.183,518.381 M253.745,528.881l-3.316-0.414
	c-0.703-0.087-1.256-0.437-1.613-1.076l-9.711-17.021l-0.078-0.008l-1.881,15.257c-0.106,0.865-0.535,1.128-1.317,1.029
	l-3.629-0.449c-0.896-0.112-1.266-0.358-1.147-1.299l3.068-24.866c0.123-1.021,0.616-1.159,1.436-1.056l3.279,0.412
	c0.779,0.096,1.14,0.378,1.497,1.019l9.697,17.137l0.081,0.012l1.895-15.376c0.106-0.862,0.569-1.084,1.349-0.987l3.786,0.474
	c1.015,0.124,1.026,0.683,0.943,1.351l-3.057,24.788C254.902,528.825,254.449,528.965,253.745,528.881 M278.15,506.278l-2.123-0.031
	l-0.289,19.357l1.967,0.032c0.628,0.008,0.937,0.487,0.931,1.042l-0.034,2.092c-0.009,0.477-0.328,0.906-0.877,0.896l-10.107-0.15
	c-0.59-0.011-0.977-0.452-0.969-0.886l0.03-2.131c0.013-0.713,0.41-1.022,0.998-1.015l1.811,0.026l0.289-19.358l-2.087-0.032
	c-0.629-0.008-0.934-0.489-0.926-1.044l0.03-2.09c0.008-0.474,0.327-0.907,0.88-0.897l10.537,0.159
	c0.589,0.009,0.975,0.448,0.969,0.885l-0.028,2.132C279.136,505.976,278.737,506.288,278.15,506.278 M297.628,529.325
	c-2.547,0.205-5.685-0.058-8.306-0.762c-0.643-0.146-0.859-0.409-0.889-0.762c-0.016-0.195,0.046-0.439,0.105-0.685l0.807-3.272
	c0.086-0.405,0.251-0.772,0.764-0.813c0.195-0.016,0.395,0.009,0.677,0.104c1.98,0.595,4.215,0.893,6.212,0.729
	c1.646-0.128,3.658-1.16,3.505-3.094c-0.12-1.493-1.354-2.148-2.614-2.603l-5.446-2.022c-3.007-1.109-5.118-3.394-5.383-6.705
	c-0.399-5.042,4.393-8.278,8.981-8.648c2.818-0.225,5.291,0.095,7.847,0.961c0.646,0.228,0.904,0.48,0.933,0.837
	c0.012,0.156-0.05,0.36-0.111,0.604l-0.969,3.168c-0.157,0.53-0.378,0.745-0.728,0.771c-0.196,0.018-0.441-0.046-0.724-0.141
	c-1.664-0.578-3.824-0.964-5.431-0.835c-1.568,0.126-3.285,0.859-3.138,2.709c0.1,1.264,1.728,1.926,2.742,2.276l4.67,1.69
	c3.212,1.17,5.378,3.141,5.662,6.725C307.245,525.225,303,528.896,297.628,529.325 M324.264,501.601l-2.096,0.368l3.301,19.074
	l1.938-0.335c0.622-0.108,1.012,0.304,1.104,0.85l0.359,2.065c0.08,0.465-0.158,0.945-0.699,1.043l-9.956,1.738
	c-0.583,0.102-1.044-0.261-1.118-0.689l-0.363-2.1c-0.12-0.703,0.213-1.081,0.793-1.184l1.784-0.313l-3.301-19.075l-2.053,0.359
	c-0.62,0.109-1.012-0.305-1.104-0.848l-0.357-2.067c-0.08-0.466,0.156-0.947,0.699-1.044l10.38-1.813
	c0.583-0.1,1.044,0.259,1.119,0.688l0.362,2.103C325.178,501.123,324.844,501.501,324.264,501.601 M363.592,515.774
	c-7.491,2.533-13.497-1.396-16.197-9.45c-2.687-8.011-0.06-15.157,7.357-17.666c7.791-2.637,13.646,1.842,16.198,9.444
	C373.774,506.528,370.6,513.4,363.592,515.774 M356.297,493.765c-3.243,1.098-4.476,4.724-2.616,10.268
	c1.982,5.913,4.863,7.817,8.403,6.618c3.28-1.109,4.512-4.486,2.566-10.29C362.63,494.333,359.837,492.567,356.297,493.765
	 M387.047,496.069c-0.464,0.212-1.604,0.658-2.011,0.805l3.412,7.383c0.282,0.612,0.197,1.086-0.624,1.471l-3.567,1.663
	c-0.643,0.298-1.151,0.231-1.549-0.629l-10.466-22.656c-0.415-0.893-0.267-1.223,0.557-1.608l5.563-2.599
	c4.142-1.93,7.325-2.541,10.071-1.382c1.946,0.833,3.499,2.503,4.378,4.405C395.476,488.69,392.542,493.501,387.047,496.069
	 M381.187,483.944l-1.75,0.813l3.596,7.778c0.48-0.179,1.656-0.729,1.942-0.863c2.673-1.245,3.438-3.255,2.242-5.84
	C385.961,483.108,383.858,482.695,381.187,483.944 M414.145,464.937c0.333,0.719-0.004,1.151-0.714,1.575l-5.941,3.567
	l10.867,18.289c0.445,0.744,0.424,0.94-0.25,1.347l-3.818,2.289c-0.708,0.427-0.835,0.364-1.259-0.348l-10.91-18.353l-6.177,3.705
	c-0.676,0.407-1.146,0.229-1.551-0.45l-1.493-2.511c-0.342-0.575-0.199-1.028,0.41-1.396l16.442-9.865l1.72-1.033
	c0.608-0.367,1.006-0.237,1.267,0.204c0.021,0.034,0.04,0.067,0.081,0.139L414.145,464.937z M428.659,454.132l-1.708,1.27
	l11.45,15.579l1.584-1.175c0.504-0.374,1.038-0.183,1.362,0.261l1.241,1.687c0.278,0.38,0.282,0.918-0.161,1.247l-8.129,6.035
	c-0.476,0.352-1.048,0.237-1.305-0.113l-1.263-1.715c-0.423-0.573-0.292-1.064,0.184-1.414l1.457-1.08l-11.451-15.578l-1.679,1.245
	c-0.505,0.376-1.04,0.181-1.365-0.263l-1.241-1.686c-0.278-0.385-0.282-0.921,0.161-1.249l8.479-6.291
	c0.476-0.354,1.048-0.238,1.303,0.11l1.264,1.717C429.261,453.292,429.132,453.781,428.659,454.132 M472.021,447.059l-2.891,2.682
	c-0.75,0.696-1.271,0.483-2.047-0.307l-9.471-9.667l-0.056,0.057l5.293,14.561c0.303,0.797-0.018,1.202-0.394,1.55l-1.071,0.993
	c-0.547,0.511-0.946,0.718-1.771,0.405l-14.628-5.848l-0.06,0.055l9.244,10.413c0.75,0.811,0.45,1.247-0.154,1.813l-2.37,2.199
	c-0.665,0.613-1.197,0.676-1.758,0.066c-0.026-0.027-0.052-0.058-0.08-0.088l-16.03-19.021c-0.609-0.722-0.506-1.249,0.045-1.76
	l2.082-1.93c0.666-0.616,1.136-0.626,1.903-0.314l18.448,7.202l0.058-0.056l-6.279-18.488c-0.223-0.708-0.171-1.294,0.464-1.885
	l2.024-1.874c0.576-0.537,0.968-0.521,1.475-0.027l17.979,17.646c0.022,0.027,0.052,0.056,0.08,0.088
	C472.564,446.076,472.541,446.579,472.021,447.059 M487.092,430.519c-5.177,6.264-10.903,6.26-17.314,0.904l-10.797-9.014
	c-0.604-0.505-0.461-1.053-0.008-1.601l2.487-3.008c0.476-0.578,0.881-0.758,1.516-0.225l10.437,8.713
	c4.747,3.964,7.465,3.46,9.802,0.635c2.213-2.677,2.179-5.477-2.508-9.395l-10.467-8.737c-0.606-0.505-0.483-1.022-0.032-1.568
	l2.489-3.01c0.478-0.575,0.879-0.752,1.514-0.223l10.768,8.99C491.783,418.664,491.917,424.684,487.092,430.519 M515.988,387.911
	l-2.086,3.354c-0.543,0.869-1.105,0.8-2.058,0.244l-11.665-6.819l-0.041,0.067l8.92,12.646c0.501,0.688,0.296,1.165,0.023,1.599
	l-0.771,1.241c-0.396,0.638-0.726,0.941-1.599,0.858l-15.646-1.771l-0.042,0.067l11.645,7.6c0.935,0.587,0.761,1.084,0.323,1.789
	l-1.708,2.748c-0.481,0.772-0.979,0.971-1.678,0.529c-0.034-0.02-0.067-0.041-0.1-0.062l-20.441-14.11
	c-0.783-0.535-0.817-1.073-0.421-1.709l1.501-2.41c0.481-0.773,0.931-0.908,1.754-0.811l19.682,2.071l0.042-0.068l-10.897-16.176
	c-0.401-0.623-0.505-1.202-0.047-1.938l1.461-2.344c0.418-0.67,0.796-0.76,1.416-0.416l21.964,12.27
	c0.03,0.019,0.066,0.039,0.1,0.063C516.249,386.821,516.362,387.308,515.988,387.911"/>
<path fill="#FFFFFF" d="M552.664,352.791c-0.118-0.277-0.342-0.495-0.623-0.604l-34.428-13.562c0.64-2.416,1.885-5.862,4.243-9.37
	l17.761,8.026c0.581,0.255,1.184,0.39,1.808,0.39c1.615,0,3.112-0.887,3.902-2.313c0.495-0.769,1.858-3.031,2.992-6.016
	c1.796-4.713,2.179-8.915,1.148-12.496c-1.065-3.702-3.663-6.565-7.504-8.289l-47.387-22.242c-0.08-0.043-0.192-0.089-0.305-0.146
	l-0.072-0.031c-2.365-1.059-7.645-2.534-13.717,1.919c0.075-2.073,0.128-4.154,0.128-6.235c0-11.635-1.922-26.897-3.827-36.835
	c-2.181-12.255-6.386-26.982-9.36-35.448l-2.556-7.726l-0.053-0.142c-1.84-4.998-3.565-10.123-5.127-15.227
	c-5.121-16.726-8.176-32.177-8.176-41.339c0-15.662,13.625-40.048,31.682-56.725l8.467-7.815v-0.003L405.757,1.118l-6.778,4.516
	c-15.726,10.49-36.079,16.268-57.304,16.268c-22.261,0-43.326-6.263-59.309-17.637L276.371,0l-5.991,4.265
	c-15.986,11.374-37.048,17.637-59.309,17.637c-21.229,0-41.578-5.778-57.309-16.268l-6.772-4.516L69.388,72.882L61.1,80.558v0.008
	l8.462,7.814c18.063,16.679,31.685,41.065,31.685,56.725c0,9.157-3.054,24.611-8.173,41.339c-1.563,5.109-3.288,10.231-5.131,15.233
	l-2.597,7.836c-2.988,8.515-7.195,23.25-9.363,35.453c-1.909,9.959-3.832,25.221-3.832,36.856c0,2.085,0.053,4.169,0.13,6.243
	c-6.073-4.461-11.354-2.989-13.722-1.927l-0.074,0.031c-0.109,0.057-0.22,0.103-0.302,0.146l-47.389,22.242
	c-3.842,1.724-6.437,4.587-7.503,8.289c-1.034,3.581-0.646,7.783,1.149,12.496c1.135,2.984,2.497,5.247,2.993,6.016
	c0.789,1.426,2.284,2.313,3.903,2.313c0.621,0,1.228-0.135,1.806-0.39l17.759-8.026c2.361,3.508,3.603,6.954,4.245,9.37
	L0.713,352.186c-0.279,0.109-0.501,0.327-0.619,0.604c-0.121,0.279-0.126,0.59-0.014,0.871l2.073,5.313
	c21.518,55.087,58.082,102.177,105.737,136.182c44.268,31.608,96.12,50.092,149.981,53.462l17.719,17.977
	c0.219,0.224,0.506,0.334,0.793,0.334c0.284,0,0.571-0.11,0.786-0.336l17.725-17.975v-0.002
	c53.856-3.368,105.708-21.854,149.973-53.46c47.655-34.005,84.219-81.095,105.736-136.182l2.075-5.313
	C552.788,353.38,552.782,353.07,552.664,352.791 M498.174,311.199c1.723-4.583,2.286-9.34,1.585-13.396
	c-0.053-0.302-0.109-0.59-0.174-0.883l-0.485-2.232l40.564,19.039c2.382,1.07,3.831,2.612,4.439,4.714
	c1.267,4.388-1.397,10.094-2.601,12.339l-0.496,0.921l-43.211-19.498L498.174,311.199z M479.513,301
	c3.188-5.107,6.587-8.017,9.568-8.017h0.012h0.004l2.128,0.513c1.463,0.747,2.578,2.677,3.027,5.288
	c0.599,3.428-0.016,7.48-1.72,11.407l-0.338,0.826c-0.007,0.015-0.037,0.081-0.063,0.145c-0.858,2.263,0.187,4.793,2.381,5.771
	l3.819,1.723l17.011,7.627l-4.331,9.751l-25.331-9.952c-0.735-0.292-1.496-0.439-2.246-0.441c-1.988,0.005-3.784,1.013-4.938,2.771
	l-0.102,0.166c-0.704,1.201-2.855,3.944-4.713,4.359c-0.14,0.031-0.281,0.049-0.412,0.049c-0.135,0-0.269-0.016-0.402-0.047
	C476.078,322.54,478.302,311.855,479.513,301 M473.101,340.094c0.664,0,1.335-0.086,1.992-0.252c3.671-0.916,6.775-4.98,8.281-7.182
	c0.153-0.193,0.383-0.318,0.636-0.318c0.104,0,0.203,0.026,0.291,0.063l2.091,0.899l1.761,0.693
	c-1.936,4.858-4.881,11.787-7.582,17.351l-12.698-4.697h-0.002c0.555-1.55,1.966-5.478,2.477-7.041
	C471.242,339.931,472.161,340.094,473.101,340.094 M477.817,356.821c-17.021,32.859-41.418,61.116-71.541,82.605
	c-34.658,24.705-74.949,38.85-117.223,41.268l12.924-13.119c48.168-5.528,92.73-26.753,125.527-59.809
	c16.33-16.453,29.147-35.23,38.103-55.435L477.817,356.821z M86.231,246.925c2.162-12.178,6.367-26.537,8.971-33.936l2.515-7.608
	c1.94-5.268,3.722-10.578,5.319-15.796c5.378-17.58,8.642-34.117,8.642-44.48c0-19.818-16.006-46.854-34.917-64.388l-0.16-0.171
	l71.428-66.053C164.835,25.701,186.903,32.5,211.07,32.5c25.276,0,48.236-7.416,65.3-19.559
	C293.438,25.084,316.394,32.5,341.675,32.5c24.165,0,46.229-6.799,63.038-18.007l71.442,66.056l-0.159,0.168
	c-18.909,17.536-34.917,44.568-34.917,64.388c0,10.36,3.265,26.898,8.645,44.48c1.598,5.214,3.378,10.525,5.315,15.793l2.521,7.607
	c2.6,7.401,6.806,21.762,8.966,33.94h-0.002c1.91,9.949,3.652,24.449,3.652,34.897c0,91.134-75.73,166.137-172.96,175.607
	l-20.839,21.154l-20.832-21.152c-97.232-9.472-172.964-84.475-172.964-175.609C82.582,271.376,84.324,256.876,86.231,246.925
	 M263.705,480.694c-42.274-2.418-82.566-16.563-117.224-41.268c-30.12-21.489-54.519-49.746-71.537-82.605l12.21-4.491
	c8.956,20.206,21.772,38.983,38.099,55.437c32.801,33.058,77.362,54.282,125.532,59.809L263.705,480.694z M84.869,346.652h-0.005
	l-12.695,4.697c-2.698-5.563-5.644-12.492-7.579-17.351l1.76-0.693l2.088-0.899c0.094-0.037,0.189-0.063,0.294-0.063
	c0.253,0,0.478,0.125,0.639,0.318c1.505,2.201,4.605,6.266,8.273,7.182c0.66,0.166,1.333,0.252,1.998,0.252
	c0.937,0,1.858-0.163,2.75-0.483C82.904,341.174,84.314,345.102,84.869,346.652 M58.245,316.933c2.193-0.979,3.24-3.509,2.38-5.771
	c-0.026-0.063-0.052-0.13-0.059-0.145l-0.342-0.826c-1.703-3.927-2.315-7.979-1.721-11.407c0.453-2.611,1.568-4.541,3.03-5.288
	l0.22-0.108c0.615-0.27,1.258-0.404,1.904-0.404c2.988,0,6.382,2.909,9.573,8.017c1.21,10.855,3.432,21.54,6.644,31.939
	c-0.261,0.062-0.518,0.062-0.799-0.002c-1.857-0.415-4.009-3.158-4.711-4.359l-0.102-0.166c-1.153-1.759-2.956-2.771-4.942-2.771
	c-0.757,0-1.517,0.149-2.258,0.441l-25.333,9.952c-0.784-2.718-2.102-6.16-4.33-9.751L58.245,316.933z M11.748,331.7l-0.494-0.921
	c-1.201-2.245-3.867-7.951-2.602-12.339c0.608-2.102,2.06-3.644,4.443-4.714l40.564-19.039l-0.488,2.232
	c-0.061,0.293-0.12,0.581-0.171,0.883c-0.704,4.057-0.139,8.813,1.584,13.396l0.378,1.003L11.748,331.7z M544.292,357.643
	c-21.109,53.458-56.753,99.186-103.073,132.236c-43.908,31.356-95.379,49.483-148.841,52.424l-0.267,0.016l-15.733,15.96
	l-15.724-15.96l-0.268-0.016c-53.459-2.94-104.927-21.067-148.841-52.424c-46.319-33.051-81.961-78.778-103.07-132.236l-0.544-1.38
	l50.711-19.971l0.534,1.345c17.195,43.268,46.12,80.293,83.65,107.069c37.469,26.712,81.596,41.484,127.605,42.72l0.575,0.015
	l5.372,5.457l5.378-5.457l0.581-0.015c46.002-1.235,90.127-16.006,127.603-42.72c37.532-26.776,66.456-63.8,83.649-107.069
	l0.536-1.345l50.708,19.971L544.292,357.643z"/>
<path fill="#FFFFFF" d="M206.203,115.309c-2.103-0.488-4.993,0.154-7.742,1.924c-2.751,1.768-4.685,4.237-5.361,6.507
	c2.105,0.488,4.996-0.155,7.741-1.92C203.59,120.05,205.534,117.579,206.203,115.309"/>
<path fill="#FFFFFF" d="M194.881,75.747c0.265-2.375-0.543-5.532-2.35-8.436c-1.806-2.906-4.173-4.862-6.258-5.423
	c-0.268,2.375,0.542,5.529,2.347,8.436C190.427,73.231,192.793,75.185,194.881,75.747"/>
<path fill="#FFFFFF" d="M195.023,86.073c-0.336,2.12,0.253,4.987,1.746,7.692c1.495,2.698,3.533,4.576,5.381,5.192
	c0.34-2.113-0.25-4.987-1.742-7.688C198.91,88.567,196.875,86.694,195.023,86.073"/>
<path fill="#FFFFFF" d="M199.167,79.331c1.335-1.876,2.12-5.04,1.931-8.565c-0.182-3.535-1.291-6.57-2.816-8.262
	c-1.336,1.878-2.115,5.039-1.928,8.571C196.536,74.599,197.645,77.64,199.167,79.331"/>
<path fill="#FFFFFF" d="M203.221,95.917c2.018-0.82,4.173-3.059,5.668-6.177c1.501-3.115,1.982-6.353,1.478-8.68
	c-2.021,0.823-4.17,3.062-5.671,6.179C203.198,90.354,202.717,93.586,203.221,95.917"/>
<path fill="#FFFFFF" d="M192.784,82.359c2.221,1.994,4.704,3.008,6.63,2.904c-0.316-2.12-1.728-4.609-3.943-6.605
	c-2.218-1.993-4.701-3.007-6.626-2.905C189.157,77.873,190.57,80.365,192.784,82.359"/>
<path fill="#FFFFFF" d="M201.734,89.362c1.685-1.487,3.094-4.364,3.639-7.85c0.543-3.482,0.086-6.722-1.053-8.756
	c-1.683,1.486-3.093,4.371-3.636,7.853C200.143,84.094,200.596,87.331,201.734,89.362"/>
<path fill="#FFFFFF" d="M211.634,105.167c-2.102-0.486-4.995,0.157-7.741,1.924c-2.745,1.767-4.692,4.234-5.358,6.509
	c2.102,0.487,4.993-0.156,7.738-1.925C209.021,109.909,210.962,107.439,211.634,105.167"/>
<path fill="#FFFFFF" d="M207.47,102.327c2.032-2.719,3.088-5.786,3.014-8.174c-2.129,0.354-4.639,2.068-6.664,4.787
	c-2.033,2.719-3.085,5.781-3.012,8.177C202.934,106.761,205.444,105.043,207.47,102.327"/>
<path fill="#FFFFFF" d="M195.082,115.43c1.678-1.502,3.07-4.392,3.586-7.88c0.525-3.485,0.044-6.726-1.103-8.749
	c-1.678,1.502-3.064,4.395-3.589,7.877C193.457,110.167,193.932,113.406,195.082,115.43"/>
<path fill="#FFFFFF" d="M194.681,125.432c-3.126,0.627-5.707,2.217-7.034,4.1c1.838,1.253,4.745,1.737,7.871,1.114
	c3.123-0.63,5.701-2.217,7.028-4.101C200.715,125.292,197.797,124.806,194.681,125.432"/>
<path fill="#FFFFFF" d="M137.545,113.6c-0.671-2.274-2.612-4.741-5.361-6.508c-2.745-1.768-5.636-2.411-7.741-1.925
	c0.672,2.273,2.616,4.741,5.364,6.509C132.556,113.445,135.443,114.087,137.545,113.6"/>
<path fill="#FFFFFF" d="M142.981,123.74c-0.676-2.271-2.616-4.739-5.364-6.507c-2.749-1.77-5.636-2.412-7.736-1.924
	c0.667,2.27,2.607,4.741,5.356,6.511C137.985,123.585,140.872,124.228,142.981,123.74"/>
<path fill="#FFFFFF" d="M148.431,129.531c-1.327-1.882-3.904-3.473-7.03-4.1c-3.12-0.626-6.034-0.139-7.866,1.114
	c1.322,1.883,3.899,3.471,7.025,4.101C143.686,131.269,146.6,130.784,148.431,129.531"/>
<path fill="#FFFFFF" d="M191.876,121.749c1.448-3.141,1.885-6.389,1.342-8.708c-2.011,0.86-4.126,3.145-5.577,6.291
	c-1.445,3.146-1.875,6.39-1.333,8.704C188.311,127.179,190.428,124.897,191.876,121.749"/>
<path fill="#FFFFFF" d="M141.539,135.396c1.758,1.377,4.636,2.075,7.789,1.673c3.155-0.408,5.818-1.804,7.249-3.597
	c-1.755-1.379-4.639-2.072-7.792-1.67C145.632,132.208,142.97,133.606,141.539,135.396"/>
<path fill="#FFFFFF" d="M156.709,132.095c2.645,1.96,5.494,2.798,7.617,2.458c-0.539-2.314-2.344-4.913-4.984-6.869
	c-2.648-1.951-5.494-2.79-7.623-2.45C152.264,127.546,154.063,130.149,156.709,132.095"/>
<path fill="#FFFFFF" d="M142.863,113.042c-0.54,2.319-0.109,5.567,1.339,8.708c1.448,3.147,3.568,5.429,5.571,6.286
	c0.542-2.314,0.111-5.558-1.343-8.704C146.986,116.187,144.868,113.901,142.863,113.042"/>
<path fill="#FFFFFF" d="M147.458,70.324c1.808-2.907,2.616-6.061,2.351-8.436c-2.091,0.561-4.457,2.517-6.264,5.423
	c-1.805,2.904-2.61,6.061-2.348,8.436C143.285,75.185,145.653,73.232,147.458,70.324"/>
<path fill="#FFFFFF" d="M143.294,82.359c2.214-1.994,3.63-4.486,3.94-6.606c-1.926-0.102-4.409,0.912-6.621,2.905
	c-2.221,1.996-3.639,4.485-3.946,6.605C138.593,85.367,141.073,84.353,143.294,82.359"/>
<path fill="#FFFFFF" d="M186.75,137.068c3.156,0.402,6.031-0.295,7.791-1.673c-1.43-1.788-4.096-3.187-7.248-3.594
	c-3.153-0.402-6.031,0.291-7.789,1.67C180.936,135.264,183.599,136.661,186.75,137.068"/>
<path fill="#FFFFFF" d="M158.434,135.875c-3.097,0.774-5.609,2.489-6.86,4.434c1.879,1.161,4.807,1.511,7.907,0.732
	c2.984-0.75,5.429-2.37,6.721-4.235c0.386,0.349,0.76,0.709,1.126,1.076c-3.453,2.003-6.449,4.669-9.051,8.081
	c1.024,1.622,1.537,2.435,2.56,4.055c1.979-4.479,4.394-8.211,7.303-11.284c2.78,3.049,4.883,6.723,6.873,11.228
	c1.024-1.62,1.534-2.433,2.558-4.055c-2.608-3.423-5.306-6.027-8.618-7.998c0.369-0.364,0.746-0.719,1.13-1.065
	c1.3,1.847,3.73,3.452,6.697,4.197c3.096,0.779,6.028,0.429,7.904-0.732c-1.248-1.945-3.764-3.66-6.863-4.434
	c-2.583-0.647-5.043-0.503-6.883,0.233c-1.758,0.704-2.811,1.328-2.811,1.328c-0.787-0.432-1.615-0.829-2.48-1.198
	c-0.05-0.021-0.1-0.043-0.147-0.063c-0.021-0.01-0.042-0.019-0.065-0.029c0.003,0.003,0.005,0.007,0.009,0.008
	C163.592,135.375,161.076,135.212,158.434,135.875"/>
<path fill="#FFFFFF" d="M132.857,95.917c0.507-2.33,0.027-5.562-1.475-8.678c-1.498-3.117-3.65-5.356-5.668-6.179
	c-0.504,2.328-0.023,5.565,1.475,8.68C128.687,92.857,130.837,95.097,132.857,95.917"/>
<path fill="#FFFFFF" d="M179.369,132.095c2.646-1.946,4.447-4.549,4.99-6.861c-2.124-0.34-4.975,0.499-7.62,2.45
	c-2.643,1.956-4.445,4.555-4.987,6.869C173.878,134.893,176.726,134.055,179.369,132.095"/>
<path fill="#FFFFFF" d="M140.996,115.43c1.147-2.024,1.625-5.263,1.106-8.752c-0.519-3.482-1.914-6.375-3.585-7.877
	c-1.148,2.023-1.629,5.264-1.11,8.749C137.929,111.038,139.324,113.928,140.996,115.43"/>
<path fill="#FFFFFF" d="M125.596,94.153c-0.077,2.388,0.979,5.455,3.005,8.174c2.032,2.717,4.542,4.434,6.671,4.79
	c0.077-2.396-0.98-5.458-3.011-8.177C130.232,96.221,127.722,94.507,125.596,94.153"/>
<path fill="#FFFFFF" d="M139.312,93.765c1.489-2.705,2.083-5.572,1.743-7.692c-1.848,0.621-3.887,2.494-5.382,5.197
	c-1.492,2.7-2.082,5.574-1.742,7.687C135.779,98.341,137.817,96.463,139.312,93.765"/>
<path fill="#FFFFFF" d="M139.728,71.075c0.186-3.532-0.596-6.692-1.931-8.57c-1.526,1.692-2.634,4.726-2.817,8.261
	c-0.189,3.525,0.599,6.689,1.932,8.565C138.439,77.64,139.545,74.599,139.728,71.075"/>
<path fill="#FFFFFF" d="M134.343,89.362c1.138-2.031,1.595-5.268,1.052-8.753c-0.542-3.482-1.951-6.367-3.638-7.853
	c-1.136,2.034-1.593,5.274-1.05,8.756C131.25,84.998,132.656,87.875,134.343,89.362"/>
<path fill="#FFFFFF" d="M200.841,121.82c-2.745,1.765-5.636,2.408-7.741,1.92c0.676-2.271,2.61-4.739,5.361-6.507
	c2.749-1.77,5.639-2.412,7.742-1.924C205.533,117.579,203.59,120.049,200.841,121.82"/>
<path fill="#FFFFFF" d="M202.546,126.545c-1.328,1.884-3.905,3.471-7.028,4.101c-3.126,0.623-6.034,0.139-7.871-1.115
	c1.327-1.882,3.908-3.472,7.034-4.099C197.797,124.805,200.714,125.293,202.546,126.545"/>
<path fill="#FFFFFF" d="M202.15,98.958c-1.849-0.616-3.887-2.495-5.382-5.192c-1.492-2.705-2.081-5.573-1.745-7.692
	c1.851,0.62,3.886,2.494,5.384,5.197C201.9,93.971,202.489,96.844,202.15,98.958"/>
<path fill="#FFFFFF" d="M203.82,98.94c2.026-2.719,4.536-4.433,6.665-4.787c0.073,2.388-0.982,5.455-3.015,8.174
	c-2.025,2.717-4.535,4.434-6.661,4.79C200.735,104.721,201.788,101.659,203.82,98.94"/>
<path fill="#FFFFFF" d="M197.564,98.801c1.147,2.023,1.628,5.264,1.103,8.749c-0.516,3.488-1.908,6.378-3.586,7.88
	c-1.15-2.025-1.625-5.263-1.106-8.752C194.5,103.196,195.886,100.303,197.564,98.801"/>
<path fill="#FFFFFF" d="M198.535,113.6c0.667-2.274,2.613-4.741,5.358-6.508c2.746-1.768,5.639-2.411,7.741-1.925
	c-0.672,2.273-2.613,4.741-5.361,6.509C203.528,113.445,200.638,114.087,198.535,113.6"/>
<path fill="#FFFFFF" d="M210.367,81.06c0.504,2.328,0.023,5.565-1.478,8.68c-1.495,3.118-3.65,5.357-5.668,6.177
	c-0.504-2.33-0.023-5.563,1.475-8.678C206.197,84.122,208.346,81.883,210.367,81.06"/>
<path fill="#FFFFFF" d="M204.321,72.756c1.139,2.034,1.596,5.274,1.053,8.756c-0.546,3.486-1.955,6.363-3.639,7.85
	c-1.139-2.031-1.593-5.268-1.05-8.753C201.227,77.127,202.637,74.242,204.321,72.756"/>
<path fill="#FFFFFF" d="M198.281,62.504c1.525,1.692,2.634,4.727,2.816,8.261c0.189,3.526-0.595,6.689-1.931,8.566
	c-1.522-1.691-2.631-4.733-2.813-8.257C196.167,67.543,196.945,64.382,198.281,62.504"/>
<path fill="#FFFFFF" d="M199.414,85.263c-1.926,0.104-4.409-0.91-6.63-2.904c-2.214-1.993-3.627-4.486-3.939-6.606
	c1.925-0.102,4.408,0.912,6.626,2.905C197.686,80.655,199.098,83.143,199.414,85.263"/>
<path fill="#FFFFFF" d="M186.273,61.888c2.085,0.561,4.453,2.517,6.258,5.423c1.807,2.904,2.616,6.061,2.35,8.436
	c-2.088-0.562-4.453-2.515-6.26-5.423C186.815,67.417,186.005,64.263,186.273,61.888"/>
<path fill="#FFFFFF" d="M187.641,119.332c1.451-3.146,3.566-5.43,5.577-6.29c0.543,2.319,0.106,5.567-1.342,8.707
	c-1.448,3.148-3.566,5.43-5.568,6.287C185.766,125.722,186.196,122.478,187.641,119.332"/>
<path fill="#FFFFFF" d="M187.293,131.801c3.152,0.407,5.818,1.806,7.248,3.594c-1.76,1.378-4.635,2.075-7.791,1.673
	c-3.152-0.408-5.815-1.804-7.246-3.597C181.262,132.092,184.141,131.399,187.293,131.801"/>
<path fill="#FFFFFF" d="M176.739,127.684c2.646-1.951,5.497-2.79,7.62-2.45c-0.542,2.313-2.344,4.915-4.99,6.861
	c-2.642,1.96-5.49,2.798-7.617,2.458C172.295,132.239,174.096,129.641,176.739,127.684"/>
<path fill="#FFFFFF" d="M165.5,136.174c0.047,0.021,0.097,0.042,0.147,0.063c0.865,0.37,1.693,0.766,2.48,1.198
	c0,0,1.053-0.624,2.811-1.327c1.84-0.737,4.3-0.881,6.883-0.234c3.099,0.775,5.615,2.489,6.863,4.434
	c-1.876,1.161-4.808,1.512-7.904,0.732c-2.967-0.744-5.397-2.349-6.697-4.197c-0.384,0.347-0.761,0.701-1.13,1.065
	c3.312,1.971,6.01,4.575,8.618,7.998c-1.024,1.622-1.534,2.435-2.558,4.055c-1.99-4.505-4.093-8.179-6.873-11.227
	c-2.909,3.072-5.324,6.804-7.303,11.283c-1.023-1.619-1.536-2.433-2.56-4.055c2.602-3.412,5.598-6.078,9.051-8.081
	c-0.366-0.367-0.74-0.727-1.126-1.076c-1.292,1.865-3.737,3.485-6.721,4.235c-3.1,0.78-6.028,0.429-7.907-0.732
	c1.251-1.945,3.763-3.659,6.86-4.434c2.642-0.662,5.158-0.5,7.01,0.279c-0.004-0.001-0.006-0.004-0.009-0.007
	C165.458,136.155,165.479,136.165,165.5,136.174"/>
<path fill="#FFFFFF" d="M159.342,127.684c2.64,1.957,4.444,4.555,4.984,6.869c-2.124,0.34-4.972-0.498-7.617-2.458
	c-2.646-1.946-4.445-4.549-4.99-6.861C153.848,124.894,156.694,125.733,159.342,127.684"/>
<path fill="#FFFFFF" d="M156.576,133.471c-1.43,1.793-4.093,3.189-7.249,3.597c-3.153,0.403-6.03-0.295-7.789-1.673
	c1.431-1.788,4.094-3.187,7.246-3.594C151.937,131.399,154.821,132.092,156.576,133.471"/>
<path fill="#FFFFFF" d="M149.773,128.036c-2.002-0.857-4.123-3.139-5.571-6.287c-1.448-3.14-1.879-6.388-1.339-8.707
	c2.005,0.86,4.123,3.144,5.568,6.29C149.884,122.478,150.315,125.722,149.773,128.036"/>
<path fill="#FFFFFF" d="M143.544,67.311c1.807-2.906,4.173-4.862,6.264-5.423c0.265,2.375-0.543,5.529-2.351,8.436
	c-1.804,2.908-4.173,4.862-6.261,5.423C140.935,73.372,141.739,70.214,143.544,67.311"/>
<path fill="#FFFFFF" d="M140.613,78.658c2.211-1.993,4.694-3.007,6.621-2.905c-0.31,2.12-1.726,4.613-3.94,6.606
	c-2.221,1.994-4.702,3.008-6.627,2.904C136.974,83.143,138.392,80.655,140.613,78.658"/>
<path fill="#FFFFFF" d="M133.931,98.958c-0.339-2.114,0.25-4.987,1.743-7.687c1.495-2.703,3.533-4.577,5.382-5.197
	c0.339,2.119-0.254,4.987-1.744,7.692C137.817,96.462,135.78,98.342,133.931,98.958"/>
<path fill="#FFFFFF" d="M135.272,107.117c-2.129-0.356-4.639-2.073-6.67-4.79c-2.027-2.719-3.082-5.786-3.006-8.174
	c2.127,0.354,4.636,2.068,6.665,4.787C134.293,101.659,135.349,104.721,135.272,107.117"/>
<path fill="#FFFFFF" d="M138.517,98.801c1.671,1.502,3.067,4.395,3.585,7.877c0.519,3.489,0.042,6.727-1.106,8.752
	c-1.671-1.502-3.066-4.392-3.588-7.88C136.889,104.065,137.369,100.824,138.517,98.801"/>
<path fill="#FFFFFF" d="M134.98,70.766c0.182-3.535,1.291-6.569,2.816-8.261c1.336,1.878,2.118,5.038,1.932,8.57
	c-0.183,3.524-1.29,6.566-2.817,8.256C135.58,77.455,134.792,74.291,134.98,70.766"/>
<path fill="#FFFFFF" d="M131.757,72.756c1.687,1.486,3.096,4.371,3.638,7.853c0.543,3.485,0.086,6.722-1.052,8.753
	c-1.687-1.487-3.093-4.364-3.636-7.85C130.165,78.03,130.621,74.79,131.757,72.756"/>
<path fill="#FFFFFF" d="M125.714,81.06c2.017,0.823,4.17,3.062,5.668,6.179c1.501,3.115,1.982,6.348,1.475,8.678
	c-2.02-0.82-4.17-3.059-5.669-6.177C125.691,86.625,125.21,83.388,125.714,81.06"/>
<path fill="#FFFFFF" d="M124.443,105.167c2.105-0.486,4.996,0.157,7.741,1.924c2.749,1.767,4.69,4.234,5.361,6.509
	c-2.102,0.487-4.989-0.156-7.738-1.925C127.059,109.909,125.115,107.439,124.443,105.167"/>
<path fill="#FFFFFF" d="M129.881,115.309c2.1-0.488,4.987,0.154,7.735,1.924c2.748,1.768,4.689,4.237,5.365,6.507
	c-2.109,0.488-4.996-0.155-7.745-1.92C132.488,120.05,130.548,117.579,129.881,115.309"/>
<path fill="#FFFFFF" d="M133.535,126.545c1.832-1.252,4.745-1.74,7.866-1.113c3.125,0.627,5.702,2.217,7.03,4.099
	c-1.832,1.254-4.745,1.738-7.871,1.115C137.434,130.016,134.856,128.429,133.535,126.545"/>
<path fill="#FFFFFF" d="M245.523,432.799c-0.518-0.032-1.552-0.088-2.648-0.088c-0.808,0-1.721,0.029-2.793,0.088l-0.341,0.021
	l0.053-0.337c0.396-2.573,0.589-5.267,0.589-8.236v-15.335c0-4.235-0.358-4.697-1.759-4.697c-0.396,0-0.97,0.09-1.703,0.261
	l-2.399,0.544c-0.716,0.168-1.191,0.337-1.682,0.532l-0.148,0.056l-0.668-0.508l0.109-0.207c0.331-0.624,0.789-1.732,1.017-2.696
	l0.044-0.189l0.196-0.02c1.241-0.134,2.059-0.222,3.499-0.535l5.066-1.089c0.925-0.183,1.951-0.464,2.835-0.718l0.153-0.041
	l0.577,0.57l-0.021,0.136c-0.402,2.814-0.582,6.009-0.582,7.927v16.512c0,3.346,0.304,6.006,0.884,7.685l0.135,0.394
	L245.523,432.799z"/>
<path fill="#FFFFFF" d="M281.329,433.11l-0.023,0.251l-0.249,0.003c-0.038,0-3.821,0.045-6.043,0.223l-0.186,0.014l-0.423-0.842
	l16.566-28.168h-10.372c-1.616,0-3.697,0.166-5.448,1.439l-0.121,0.092l-0.845-0.337l0.092-0.251
	c0.55-1.511,0.999-4.044,1.164-5.061l0.042-0.248l0.251,0.018c1.211,0.086,2.48,0.086,3.824,0.086h11.895
	c1.546,0,2.253,0,3.642-0.13l0.274-0.027l0.027,0.275c0.041,0.452,0.357,2.538,0.525,3.009l0.055,0.153l-0.107,0.122
	c-2.542,2.869-5.593,8.172-8.24,12.979C283.365,424.482,281.715,428.775,281.329,433.11"/>
<path fill="#FFFFFF" d="M264.377,414.633c3.077-1.737,5.956-3.851,5.956-8.051c0-4.533-3.772-7.829-8.968-7.829
	c-5.352,0-9.546,3.836-9.546,8.734c0,4.045,2.728,6.352,5.524,8.048c-4.428,2.598-7.153,5.135-7.153,9.458
	c0,5.117,4.114,8.69,10.005,8.69c6.502,0,11.223-4.112,11.223-9.776C271.418,419.301,268.09,416.707,264.377,414.633
	 M256.028,406.556c0-3.051,2.32-5.329,5.417-5.329c3.145,0,5.472,2.319,5.472,5.465c0,3.512-2.549,5.291-5.15,6.747
	C258.854,411.754,256.028,409.931,256.028,406.556 M260.632,431.304c-3.786,0-6.52-2.73-6.52-6.423c0-3.97,3.054-6.384,6.246-7.934
	c4.33,2.371,7.061,4.331,7.061,7.976C267.419,428.52,264.458,431.304,260.632,431.304"/>
<path fill="#FFFFFF" d="M309.943,415.305c3.07-1.732,5.95-3.846,5.95-8.046c0-4.54-3.769-7.835-8.962-7.835
	c-5.354,0-9.548,3.839-9.548,8.739c0,4.049,2.723,6.353,5.516,8.043c-4.422,2.595-7.144,5.131-7.144,9.461
	c0,5.116,4.111,8.69,9.996,8.69c6.507,0,11.226-4.111,11.226-9.775C316.977,419.975,313.653,417.38,309.943,415.305 M301.93,407.239
	c0-3.057,2.323-5.332,5.421-5.332c3.142,0,5.468,2.32,5.468,5.469c0,3.508-2.554,5.287-5.149,6.744
	C304.752,412.432,301.93,410.609,301.93,407.239 M306.53,431.984c-3.784,0-6.515-2.737-6.515-6.426c0-3.963,3.053-6.381,6.239-7.93
	c4.332,2.367,7.066,4.324,7.066,7.974C313.321,429.2,310.357,431.984,306.53,431.984"/>
<path fill="#FFFFFF" d="M176.888,364.689c-0.594,2.133-2.47,8.92-2.624,9.476c-9.867-0.328-16.416-0.408-22.215-0.408
	c-7.298,0-12.048,0-16.002,0.086c0.703-4.649,1.226-10.006,1.226-16.677v-27.552c0-4.473-0.172-12.994-1.756-16.939
	c2.992,0.174,5.01,0.174,7.209,0.174h16.529c5.89,0,8.264-0.174,14.683-0.266c-1.167,4.21-2.4,8.657-2.869,10.351
	c-0.468,1.697-1.36,0.426-1.525,0.183c-2.729-3.948-8.002-4.389-13.011-4.389c-1.588,0-3.432,0.089-5.631,0.18
	c-0.086,1.487-0.349,5.702-0.349,9.478v8.952h7.298c5.352,0,10.741-0.396,12.836-0.706c0.881-0.134,0.701,0.614,0.701,0.614
	c-0.653,2.362-1.54,5.557-2.107,7.61c-5.631-0.525-8.708-0.676-12.574-0.676h-6.242v12.461c0,8.074,0.88,10.708,10.457,10.708
	c5.459,0,8.362,0.032,14.24-4.447C176.215,362.099,177.479,362.56,176.888,364.689"/>
<path fill="#FFFFFF" d="M203.31,364.78c-1.321,3.165-1.942,5.454-2.731,8.971c-0.881-0.082-2.912-0.082-4.939-0.082
	c-1.759,0-3.963,0.082-5.643,0.175c-0.614-3.873-1.32-6.338-2.645-10.204l-5.813-17.775c-1.762-5.282-3.882-11.087-7.759-15.577
	c5.82,0.175,10.398-0.083,15.955-0.522c0.354,4.31,1.321,8.444,2.553,12.572l3.267,11.183c0.795,2.633,2.47,8.529,2.47,8.529
	c0.612-1.93,1.322-3.783,1.933-5.452l5.116-13.197c0.875-2.286,2.028-5.806,2.377-9.412c0-1.232,0.088-2.379,0-3.874
	c1.239,0.091,3.529,0.091,5.377,0.091c1.764,0,4.631-0.222,5.976-0.398c1.206-0.15,1.034,0.591,0.635,1.099
	c-3.032,3.849-5.464,9.064-7.755,14.431L203.31,364.78z"/>
<path fill="#FFFFFF" d="M274.016,373.828c-1.425-0.089-4.28-0.178-7.041-0.178c-2.757,0-5.523,0.089-7.214,0.178
	c0.8-5.164,1.07-9.43,1.07-15.831v-10.673c0-4.271-0.358-11.917-1.874-16.632c3.39,0,8.648-0.177,12.204-0.355l-0.171,10.139
	l3.207-4.18c4.006-5.252,6.771-6.939,10.956-6.939c1.514,0,2.227,0.127,3.828,0.842c-1.256,4.514-2.568,9.264-3.334,12.021
	c-0.165,0.594-0.713,1.401-1.514,0.503c-1.702-1.896-2.004-2.602-4.059-2.602c-2.491,0-4.542,1.333-6.059,3.824
	c-1.248,2.042-1.782,3.737-1.782,8.001v7.21C272.234,366.802,272.768,370.002,274.016,373.828"/>
<path fill="#FFFFFF" d="M323.244,331.032c-0.347,1.245-1.357,4.912-1.777,6.423c-3.463-0.404-5.573-0.426-7.903-0.426h-3.945
	c-0.184,2.952-0.271,6.535-0.271,9.042v10.111c0,6.804,0.715,11.816,6.635,11.816c1.887,0,3.402-0.428,5.737-1.612
	c0.375-0.194,1.291-0.146,0.967,1.041c-0.55,1.964-1.05,3.772-1.667,6.021c-5.323,1.407-7.546,1.801-10.407,1.801
	c-7.632,0-12.564-3.316-12.564-14.235V347.41c0-4.384,0-7.517-0.175-10.47c-2.335,0-4.832,0.281-6.048,0.497
	c-0.269,0.044-0.856-0.068-0.594-1.026c0.074-0.271,1.188-4.288,1.588-5.725c1.132,0.111,3.26,0.165,5.414,0.165
	c0-3.488-0.186-5.367-0.36-8.057c3.133-0.893,8.825-3.474,11.278-5.022c0.905-0.57,1.369,0.249,1.292,1.213
	c-0.082,1.039-0.697,3.992-0.824,11.866h6.187c2.148,0,4.561-0.086,6.813-0.626C322.943,330.145,323.442,330.32,323.244,331.032"/>
<path fill="#FFFFFF" d="M410.032,373.665c-2.882,0-5.764,0.092-7.295,0.178c0.81-4.856,1.082-10.517,1.082-16.991v-7.816
	c0-5.216-0.363-11.24-7.74-11.24c-2.619,0-5.229,1.079-7.21,2.964c-2.252,2.25-2.881,4.142-2.881,9.71v6.383
	c0,8.183,0.537,13.128,1.797,16.991c-1.342-0.086-4.318-0.178-7.112-0.178c-2.97,0-5.76,0.092-7.295,0.178
	c0.811-4.856,1.082-10.517,1.082-16.991v-10.964c0-4.315-0.36-10.878-1.892-15.642c3.964,0,9.459,0,13.239-0.364l-0.27,7.736
	l3.6-3.057c4.414-3.689,8.017-5.217,12.519-5.217c10.268,0,13.776,5.755,13.776,15.911v11.596c0,8.183,0.544,13.128,1.807,16.991
	C415.796,373.756,412.82,373.665,410.032,373.665"/>
<path fill="#FFFFFF" d="M253.876,351.136c1.517,0,1.517-3.771,1.517-4.648c0-10.532-6.766-17.025-17.587-17.025
	c-12.568,0-21.269,9.477-21.269,23.167c0,13.516,8.612,22.729,22.152,22.729c4.659,0,9.71-1.301,13.75-2.616
	c0.719-2.601,0.94-3.378,1.791-6.446c0.394-1.422-0.404-1.874-1.126-1.378c-3.121,2.167-5.361,2.896-9.142,2.896
	c-9.402,0-15.029-5.973-15.213-16.411c2.906-0.178,9.323-0.267,13.892-0.267H253.876z M228.664,345.961
	c0.44-7.197,2.816-11.413,8.441-11.413c3.958,0,6.949,2.989,6.949,7.112c0,2.805-1.495,3.947-5.279,4.037L228.664,345.961z"/>
<path fill="#FFFFFF" d="M348.239,329.353c-15.702,0-24.088,10.044-24.088,23.873c0,13.915,8.119,22.023,21.977,22.023
	c14.56,0,23.908-9.432,23.908-24.229C370.036,337.283,362.185,329.353,348.239,329.353 M347.093,370.313
	c-6.703,0-10.407-6.518-10.407-18.848c0-10.484,2.823-17.094,10.145-17.094c6.884,0,10.682,6.609,10.682,18.854
	C357.512,364.497,353.888,370.313,347.093,370.313"/>
<path fill="#FFFFFF" d="M325.06,146.048l-44.182-92.931c1.613-3.449-1.588-7.888-5.008-7.888c-3.421,0-6.128,4.466-4.503,7.957
	l-43.858,93.361c-8.738,4.693-10.646,10.648-8.844,14.607c0,0,1.035,2.8,4.931,3.961c0.038,6.059,0.106,63.864,0.165,74.976
	c0.002,0.156,0.047,0.504-0.074,0.487c-1.779-0.275-3.789,0.901-3.789,3.963c0,4.677,0.021,7.423,0.029,11.962
	c0,1.108,0.026,4.35,0.026,4.695c0,3.708,3.808,4.879,3.808,4.879s83.729,29.917,86.487,30.969c3.983,1.523,7.59,2.775,11.022,4.133
	c1.147,0.452,1.206,1.111,1.295,3.178v4.244c0,0,2.132,0.097,3.231,0.097c8.09,0,7.083-4.114,7.323-16.463
	c0.251-12.971,0.273-16.902-3.438-17.732c-0.292-34.097,0.45-93.85,0.285-110.686c2.736-1.056,5.126-3.189,5.485-6.469
	C335.8,154.312,332.521,149.704,325.06,146.048 M276.499,63.416c1.478,3.159,3.127,6.675,4.866,10.402
	c-1.533,0.097-4.557,0.336-6.479,0.778c-1.132,0.25-1.336,0.659-1.336,1.052c0,0.356,0.452,0.921,1.626,0.946
	c2.423,0.05,5.864,0.213,7.629,0.313c0.533,1.109,1.043,2.238,1.577,3.373c-1.268,0.377-3.081,0.928-3.589,1.129
	c-0.796,0.322-1.627,0.613-1.566,1.209c0.055,0.528,0.918,0.596,1.614,0.692c1.51,0.188,3.771,0.334,5.099,0.298
	c0.878,1.888,1.521,3.255,2.42,5.191c0.558,1.201-1.122,1.44-2.554,1.532c-1.684,0.122-5.998,0.112-8.054,0.379
	c-0.809,0.099-1.114,0.535-1.114,0.996c0,0.435,0.608,0.811,1.374,0.863c2.946,0.16,6.567,0.461,8.496,0.835
	c1.596,0.306,3.386,0.709,4.539,1.141c0.567,1.188,1.096,2.371,1.651,3.553c0.314,0.674-0.602,1.01-1.274,1.067
	c-1.105,0.091-6.024-0.217-8.652,0.041c-1.155,0.123-1.406,0.4-1.406,0.988c0,0.421,0.219,0.686,1.345,0.874
	c2.092,0.34,6.311,0.511,7.641,0.733c1.406,0.222,3.25,0.708,4.716,1.348c0.903,1.946,1.474,3.163,2.353,5.069
	c0.363,0.782-0.138,1.049-0.627,1.083c-0.773,0.06-9.676,0.17-10.435,0.214c-0.908,0.067-1.926,0.325-2.069,1.058
	c-0.115,0.574,0.66,1.4,2.725,1.534c2.064,0.129,9.841,0.583,13.857,3.467c1.092,2.339,2.146,4.609,3.158,6.766
	c-3.038-0.281-13.602-1.176-18.428-1.039c-4.15,0.116-5.869,0-6.025,0.845c-0.15,0.844,0.717,1.22,3.336,1.484
	c2.495,0.247,16.248,1.066,23.538,3.899c1.425,3.046,2.698,5.777,3.788,8.091c-3.831-0.768-12.721-2.093-18.11-2.22
	c-2.077-0.05-2.888,0.393-2.888,1.263c0,0.879,1.87,0.989,3.146,1.116c6.738,0.668,16.243,2.979,19.971,4.396
	c0.393,0.839,0.702,1.498,0.952,2.031c-12.234-2.552-29.679-3.787-37.393-3.787c-7.63,0-24.052,1.092-36.333,4.017
	C243.071,135.002,264.746,88.559,276.499,63.416 M243.761,267.868c0,0.366-0.3,0.555-0.675,0.425
	c-3.799-1.33-5.698-1.992-9.491-3.291c-0.374-0.129-0.677-0.531-0.677-0.897v-15.816c0-0.37,0.303-0.551,0.677-0.411
	c3.793,1.427,5.692,2.134,9.494,3.535c0.375,0.139,0.678,0.541,0.678,0.901C243.764,258.474,243.764,261.607,243.761,267.868
	 M259.63,273.486c0,0.364-0.307,0.553-0.681,0.418c-3.796-1.35-5.698-2.027-9.493-3.37c-0.375-0.134-0.678-0.533-0.678-0.898
	c0.002-6.244,0.002-9.374,0.008-15.492c0-0.357,0.304-0.535,0.679-0.401c3.804,1.377,5.706,2.056,9.511,3.387
	c0.374,0.132,0.678,0.525,0.678,0.882C259.642,264.11,259.639,267.259,259.63,273.486 M275.487,279.114
	c-0.003,0.36-0.307,0.55-0.679,0.417c-3.795-1.343-5.694-2.013-9.489-3.361c-0.375-0.136-0.679-0.538-0.676-0.901
	c0.009-6.231,0.017-9.396,0.03-15.515c0-0.358,0.307-0.541,0.681-0.414c3.801,1.304,5.703,1.939,9.499,3.193
	c0.374,0.124,0.678,0.52,0.678,0.883C275.513,269.636,275.505,272.862,275.487,279.114 M291.323,284.668
	c-0.002,0.366-0.307,0.555-0.68,0.425c-3.79-1.321-5.684-1.986-9.473-3.319c-0.375-0.133-0.679-0.532-0.676-0.899
	c0.018-6.263,0.029-9.523,0.047-15.819c0.003-0.369,0.308-0.564,0.683-0.443c3.795,1.222,5.688,1.821,9.477,3
	c0.375,0.117,0.679,0.518,0.676,0.899C291.353,275.017,291.344,278.369,291.323,284.668 M307.139,290.158
	c0,0.369-0.305,0.562-0.678,0.431c-3.787-1.309-5.679-1.968-9.465-3.28c-0.374-0.13-0.674-0.532-0.674-0.901
	c0.023-6.318,0.032-9.711,0.057-16.341c0-0.385,0.303-0.606,0.677-0.49c3.783,1.155,5.677,1.726,9.455,2.858
	c0.374,0.112,0.675,0.53,0.675,0.937C307.169,280.299,307.158,283.807,307.139,290.158 M260,252.767
	c-18.718-6.512-27.184-9.928-27.376-15.37c-0.118-3.37-0.572-17.368-0.224-20.926l-0.348-52.198
	c-0.018-1.547,2.512-2.457,4.81-3.021c2.208-0.544,15.998-3.6,39.054-3.6c23.067,0,39.189,2.774,43.339,4.445
	c0.908,0.365,2.011,0.796,2.667,1.363l0.057,4.498c-3.922-0.545-18.812-2.593-25.175-3.02c-2.938-0.203-6.76-0.34-10.493-0.432
	c-0.015-0.396-0.163-0.78-0.43-1.076c-0.304-0.336-0.731-0.537-1.183-0.556c-8.141-0.345-11.005-0.347-19.284,0
	c-0.454,0.019-0.879,0.22-1.183,0.556c-0.303,0.337-0.463,0.779-0.439,1.233l1.085,19.913c-0.333,0.023-0.625,0.04-0.879,0.059
	c-4.057,0.331-20.303,2.618-21.395,2.899c-1.484,0.384-1.852,0.801-1.713,1.348c0.215,0.879,1.38,0.579,2.569,0.445
	c8.076-0.918,15.343-1.414,21.586-1.657l0.172,3.172c0.053,0.904,0.796,1.604,1.692,1.604h0.071c6.889-0.289,9.257-0.289,16.148,0
	c0.909,0.033,1.711-0.676,1.761-1.603l0.172-3.152c2.592,0.129,3.987,0.263,3.987,0.263c11.595,1.014,26.735,3.226,33.266,7.176
	l0.049,4.694c-3.811-0.822-13.568-2.851-17.163-3.127c-4.491-0.34-6.626-0.11-7.376,0c-0.755,0.104-1.386,0.547-1.286,1.122
	c0.104,0.554,0.744,0.897,1.708,0.994c0.926,0.106,15.341,0.642,24.18,6.668l0.056,4.759c-5.09-1.023-21.947-4.262-33.646-4.828
	c-15.311-0.726-34.362,1.115-35.854,1.349c-1.492,0.212-2.242,0.654-2.138,1.44c0.109,0.793,0.363,1.168,2.462,1.016
	c1.51-0.112,29.319-1.117,43.876,0.999c11.873,1.732,20.05,3.702,25.373,6.249l0.071,5.988c-4.72-0.967-15.052-2.971-20.307-3.414
	c-10.915-0.919-17.865-0.75-19.048-0.75c-1.082,0-1.53,0.496-1.48,1.169c0.05,0.826,0.828,0.822,1.575,0.846
	c1.433,0.047,9.499,0.271,18.413,1.653c5.83,0.895,14.893,2.321,20.909,5.435l0.073,6.068c-3.135-0.361-9.298-1.042-11.896-1.125
	c-3.527-0.103-6.47-0.022-7.594,0.224c-0.731,0.168-1.124,0.662-1.023,1.105c0.119,0.449,0.502,0.804,1.235,0.804
	c0.752,0,5.999,0.332,9.959,0.996c3.123,0.532,6.848,1.631,9.372,2.885c0,0,0.021,5.932,0.029,7.906
	c0,0.225-6.729-2.106-13.389-2.531c-6.027-0.386-11.769-0.296-16.305,0.075c-0.416,0.035-1.684,0.257-1.654,1.357
	c0.029,1.197,1.404,0.988,2.062,1.013c3.438,0.128,6.272-0.005,12.31,0.592c8.785,0.873,17.06,3.689,17.06,3.869
	c0.009,2.42,0.015,4.604,0.015,7.498c0,0.106-3.777-1.076-9.664-1.859c-2.427-0.322-6.638-0.774-8.236-0.629
	c-1.08,0.094-2.092,0.285-2.134,1.266c-0.061,1.403,2.417,1.432,3.291,1.538c0.932,0.116,3.523,0.287,8.063,1.035
	c3.696,0.609,8.68,2.023,8.68,2.143c0,6.231-0.015,11.261-0.015,11.261C304.275,267.697,279.593,260.04,260,252.767
	 M300.495,177.036c0.799,0,15.303,0.393,21.655,5.711l0.077,6.043c-4.059-0.981-13.48-3.073-24.513-4.155
	c-2.932-0.293-5.851-0.47-8.708-0.59c0,0-1.47-0.044-3.743-0.078l0.923-16.888c4.294,0.306,8.788,0.72,12.704,1.239
	c6.299,0.829,18.027,2.935,23.15,5.053l0.056,4.35c-2.519-0.582-7.915-1.748-11.654-2.252c-5.033-0.665-8.905-0.665-9.762-0.547
	c-0.866,0.103-1.913,0.17-1.894,1.112C298.799,176.815,299.627,177.036,300.495,177.036 M282.726,167.205l-1.154,21.782
	c0,0-6.196-0.107-11.127,0l-1.262-21.676C269.182,167.311,277.581,166.89,282.726,167.205 M322.966,295.655
	c0,0.372-0.307,0.563-0.678,0.432c-3.794-1.327-5.687-1.983-9.476-3.296c-0.371-0.13-0.672-0.531-0.672-0.904
	c0.015-6.36,0.02-9.923,0.035-17.011c0-0.412,0.304-0.657,0.676-0.546c3.777,1.123,5.664,1.681,9.439,2.81
	c0.372,0.11,0.675,0.556,0.675,0.991V295.655z M325.801,158.394c-0.896,1.563-2.879,0.946-4.957,0
	c-1.921-0.872-17.982-6.689-44.929-6.689c-26.94,0-41.641,5.266-43.599,5.74c-1.941,0.479-4.644,2.032-6.14-0.785
	c-0.988-1.841,0.3-3.601,3.294-4.846c3.008-1.261,24.784-6.007,46.445-6.221c21.678-0.213,42.377,4.489,48.228,8.252
	C325.639,154.784,326.706,156.815,325.801,158.394"/>
<path fill="#FFFFFF" d="M346.483,111.676c2.748,1.769,5.637,2.412,7.74,1.924c-0.67-2.274-2.612-4.741-5.361-6.508
	c-2.745-1.768-5.636-2.411-7.741-1.924C341.792,107.44,343.734,109.908,346.483,111.676"/>
<path fill="#FFFFFF" d="M359.541,113.042c-0.545,2.319-0.108,5.567,1.339,8.708c1.451,3.147,3.565,5.429,5.568,6.286
	c0.542-2.314,0.111-5.558-1.333-8.704C363.664,116.187,361.549,113.901,359.541,113.042"/>
<path fill="#FFFFFF" d="M349.534,95.917c0.508-2.33,0.026-5.562-1.474-8.678c-1.499-3.117-3.651-5.356-5.668-6.179
	c-0.508,2.328-0.023,5.565,1.475,8.68C345.362,92.857,347.517,95.097,349.534,95.917"/>
<path fill="#FFFFFF" d="M364.136,70.324c1.804-2.907,2.615-6.061,2.35-8.436c-2.088,0.561-4.454,2.517-6.261,5.423
	c-1.809,2.904-2.616,6.061-2.348,8.436C359.961,75.185,362.331,73.232,364.136,70.324"/>
<path fill="#FFFFFF" d="M359.971,82.359c2.215-1.994,3.63-4.486,3.942-6.606c-1.925-0.102-4.412,0.912-6.628,2.905
	c-2.215,1.996-3.627,4.485-3.943,6.605C355.27,85.367,357.75,84.353,359.971,82.359"/>
<path fill="#FFFFFF" d="M351.021,89.362c1.138-2.031,1.592-5.268,1.053-8.753c-0.543-3.482-1.955-6.367-3.637-7.853
	c-1.138,2.034-1.595,5.274-1.053,8.756C347.926,84.998,349.34,87.875,351.021,89.362"/>
<path fill="#FFFFFF" d="M356.407,71.075c0.185-3.532-0.597-6.692-1.93-8.57c-1.527,1.692-2.634,4.726-2.818,8.261
	c-0.188,3.525,0.595,6.689,1.931,8.565C355.115,77.64,356.221,74.599,356.407,71.075"/>
<path fill="#FFFFFF" d="M409.465,82.359c2.217,1.994,4.697,3.008,6.623,2.904c-0.307-2.12-1.727-4.609-3.943-6.605
	c-2.211-1.993-4.697-3.007-6.623-2.905C405.834,77.873,407.247,80.365,409.465,82.359"/>
<path fill="#FFFFFF" d="M403.428,137.068c3.152,0.402,6.031-0.295,7.789-1.673c-1.431-1.788-4.094-3.187-7.246-3.594
	c-3.152-0.402-6.038,0.291-7.792,1.67C397.61,135.264,400.276,136.661,403.428,137.068"/>
<path fill="#FFFFFF" d="M411.559,75.747c0.262-2.375-0.543-5.532-2.348-8.436c-1.809-2.906-4.174-4.862-6.264-5.423
	c-0.266,2.375,0.542,5.529,2.351,8.436C407.102,73.231,409.471,75.185,411.559,75.747"/>
<path fill="#FFFFFF" d="M408.554,121.749c1.447-3.141,1.877-6.389,1.339-8.708c-2.006,0.86-4.121,3.145-5.567,6.291
	c-1.452,3.146-1.883,6.39-1.339,8.704C404.989,127.179,407.105,124.897,408.554,121.749"/>
<path fill="#FFFFFF" d="M415.844,79.331c1.333-1.876,2.12-5.04,1.934-8.565c-0.186-3.535-1.295-6.57-2.815-8.262
	c-1.336,1.878-2.121,5.039-1.933,8.571C413.21,74.599,414.318,77.64,415.844,79.331"/>
<path fill="#FFFFFF" d="M418.412,89.362c1.687-1.487,3.095-4.364,3.636-7.85c0.544-3.482,0.09-6.722-1.049-8.756
	c-1.687,1.486-3.097,4.371-3.637,7.853C416.817,84.094,417.278,87.331,418.412,89.362"/>
<path fill="#FFFFFF" d="M418.825,98.958c0.34-2.114-0.247-4.987-1.743-7.687c-1.492-2.703-3.533-4.577-5.379-5.197
	c-0.339,2.119,0.251,4.987,1.743,7.692C414.938,96.462,416.975,98.342,418.825,98.958"/>
<path fill="#FFFFFF" d="M419.898,95.917c2.021-0.82,4.171-3.059,5.669-6.177c1.498-3.115,1.978-6.353,1.477-8.68
	c-2.017,0.823-4.169,3.062-5.671,6.179C419.873,90.354,419.394,93.586,419.898,95.917"/>
<path fill="#FFFFFF" d="M410.654,106.678c-0.521,3.489-0.041,6.728,1.104,8.752c1.674-1.502,3.068-4.392,3.591-7.88
	c0.52-3.485,0.038-6.726-1.105-8.749C412.567,100.303,411.176,103.196,410.654,106.678"/>
<path fill="#FFFFFF" d="M342.274,94.153c-0.076,2.388,0.979,5.455,3.011,8.174c2.026,2.717,4.536,4.434,6.665,4.79
	c0.073-2.396-0.982-5.458-3.011-8.177C346.913,96.221,344.4,94.507,342.274,94.153"/>
<path fill="#FFFFFF" d="M357.238,130.646c3.125,0.623,6.037,0.139,7.87-1.115c-1.323-1.882-3.907-3.472-7.033-4.099
	c-3.117-0.627-6.03-0.14-7.864,1.113C351.538,128.429,354.117,130.016,357.238,130.646"/>
<path fill="#FFFFFF" d="M396.046,132.095c2.646-1.946,4.446-4.549,4.99-6.861c-2.127-0.34-4.975,0.499-7.62,2.45
	c-2.643,1.956-4.445,4.555-4.987,6.869C390.555,134.893,393.405,134.055,396.046,132.095"/>
<path fill="#FFFFFF" d="M346.555,115.309c0.67,2.27,2.613,4.741,5.361,6.511c2.747,1.765,5.633,2.408,7.742,1.92
	c-0.676-2.27-2.613-4.739-5.365-6.507C351.546,115.462,348.659,114.821,346.555,115.309"/>
<path fill="#FFFFFF" d="M355.991,93.765c1.488-2.705,2.078-5.572,1.742-7.692c-1.849,0.621-3.883,2.494-5.382,5.197
	c-1.493,2.7-2.085,5.574-1.746,7.687C352.458,98.341,354.495,96.463,355.991,93.765"/>
<path fill="#FFFFFF" d="M357.674,115.43c1.15-2.024,1.624-5.263,1.105-8.752c-0.521-3.482-1.908-6.375-3.587-7.877
	c-1.149,2.023-1.627,5.264-1.105,8.749C354.607,111.038,356,113.928,357.674,115.43"/>
<path fill="#FFFFFF" d="M358.215,135.396c1.759,1.377,4.638,2.075,7.792,1.673c3.153-0.408,5.816-1.804,7.244-3.597
	c-1.755-1.379-4.634-2.072-7.785-1.67C362.309,132.208,359.646,133.606,358.215,135.396"/>
<path fill="#FFFFFF" d="M374.935,135.875c-3.1,0.774-5.612,2.489-6.862,4.434c1.875,1.161,4.806,1.511,7.905,0.732
	c2.965-0.745,5.394-2.35,6.695-4.197c0.383,0.346,0.761,0.701,1.129,1.065c-3.312,1.971-6.007,4.575-8.617,7.998
	c1.027,1.622,1.536,2.435,2.56,4.055c1.988-4.505,4.094-8.179,6.872-11.228c2.91,3.073,5.323,6.805,7.301,11.284
	c1.024-1.62,1.537-2.433,2.561-4.055c-2.599-3.412-5.598-6.078-9.051-8.081c0.365-0.367,0.74-0.727,1.13-1.076
	c1.288,1.865,3.732,3.485,6.72,4.235c3.097,0.779,6.029,0.429,7.904-0.732c-1.248-1.945-3.762-3.66-6.859-4.434
	c-2.639-0.662-5.158-0.5-7.01,0.279c0.003-0.001,0.006-0.005,0.009-0.008c-0.021,0.01-0.041,0.019-0.063,0.029
	c-0.051,0.02-0.101,0.042-0.147,0.063c-0.867,0.369-1.692,0.766-2.483,1.198c0,0-1.052-0.624-2.807-1.328
	C379.977,135.372,377.518,135.228,374.935,135.875"/>
<path fill="#FFFFFF" d="M373.386,132.095c2.645,1.96,5.495,2.798,7.618,2.458c-0.54-2.314-2.345-4.913-4.984-6.869
	c-2.646-1.951-5.5-2.79-7.623-2.45C368.94,127.546,370.74,130.149,373.386,132.095"/>
<path fill="#FFFFFF" d="M424.154,102.327c2.026-2.719,3.085-5.786,3.008-8.174c-2.125,0.354-4.639,2.068-6.667,4.787
	c-2.032,2.719-3.085,5.781-3.009,8.177C419.613,106.761,422.122,105.043,424.154,102.327"/>
<path fill="#FFFFFF" d="M415.139,117.233c-2.749,1.768-4.689,4.236-5.361,6.507c2.105,0.488,4.991-0.155,7.741-1.92
	c2.752-1.771,4.688-4.241,5.358-6.511C420.774,114.821,417.887,115.462,415.139,117.233"/>
<path fill="#FFFFFF" d="M420.574,107.092c-2.748,1.767-4.691,4.234-5.364,6.508c2.105,0.488,4.993-0.155,7.741-1.924
	c2.746-1.768,4.689-4.236,5.361-6.508C426.209,104.681,423.318,105.324,420.574,107.092"/>
<path fill="#FFFFFF" d="M411.355,125.432c-3.122,0.627-5.7,2.217-7.029,4.1c1.833,1.253,4.744,1.737,7.87,1.114
	c3.126-0.63,5.703-2.217,7.028-4.101C417.388,125.292,414.478,124.806,411.355,125.432"/>
<path fill="#FFFFFF" d="M427.044,81.06c0.501,2.328,0.021,5.565-1.479,8.68c-1.497,3.118-3.646,5.357-5.668,6.177
	c-0.504-2.33-0.025-5.563,1.475-8.678C422.875,84.122,425.027,81.883,427.044,81.06"/>
<path fill="#FFFFFF" d="M413.446,93.765c-1.492-2.705-2.082-5.572-1.743-7.692c1.847,0.621,3.887,2.494,5.379,5.197
	c1.496,2.7,2.083,5.574,1.743,7.687C416.975,98.341,414.938,96.463,413.446,93.765"/>
<path fill="#FFFFFF" d="M415.348,107.55c-0.522,3.488-1.917,6.378-3.59,7.88c-1.146-2.025-1.624-5.263-1.104-8.752
	c0.522-3.482,1.913-6.375,3.589-7.877C415.386,100.824,415.868,104.065,415.348,107.55"/>
<path fill="#FFFFFF" d="M420.495,98.94c2.028-2.719,4.542-4.433,6.667-4.787c0.077,2.388-0.981,5.455-3.008,8.174
	c-2.032,2.717-4.541,4.434-6.668,4.79C417.41,104.721,418.462,101.659,420.495,98.94"/>
<path fill="#FFFFFF" d="M420.999,72.756c1.139,2.034,1.593,5.274,1.049,8.756c-0.541,3.486-1.948,6.363-3.636,7.85
	c-1.134-2.031-1.595-5.268-1.05-8.753C417.902,77.127,419.311,74.242,420.999,72.756"/>
<path fill="#FFFFFF" d="M414.962,62.504c1.521,1.692,2.63,4.727,2.815,8.261c0.187,3.526-0.601,6.689-1.934,8.566
	c-1.527-1.691-2.634-4.733-2.814-8.257C412.841,67.543,413.626,64.382,414.962,62.504"/>
<path fill="#FFFFFF" d="M416.088,85.263c-1.926,0.104-4.406-0.91-6.623-2.904c-2.219-1.993-3.631-4.486-3.943-6.606
	c1.926-0.102,4.412,0.912,6.623,2.905C414.363,80.655,415.782,83.143,416.088,85.263"/>
<path fill="#FFFFFF" d="M402.948,61.888c2.091,0.561,4.455,2.517,6.264,5.423c1.805,2.904,2.609,6.061,2.348,8.436
	c-2.088-0.562-4.457-2.515-6.261-5.423C403.49,67.417,402.682,64.263,402.948,61.888"/>
<path fill="#FFFFFF" d="M404.326,119.332c1.446-3.146,3.562-5.43,5.567-6.29c0.538,2.319,0.108,5.567-1.338,8.707
	c-1.45,3.148-3.566,5.43-5.568,6.287C402.443,125.722,402.874,122.478,404.326,119.332"/>
<path fill="#FFFFFF" d="M403.971,131.801c3.152,0.407,5.815,1.806,7.246,3.594c-1.758,1.378-4.637,2.075-7.789,1.673
	c-3.152-0.408-5.818-1.804-7.249-3.597C397.933,132.092,400.819,131.399,403.971,131.801"/>
<path fill="#FFFFFF" d="M393.417,127.684c2.646-1.951,5.493-2.79,7.62-2.45c-0.544,2.313-2.344,4.915-4.99,6.861
	c-2.642,1.96-5.491,2.798-7.617,2.458C388.971,132.239,390.774,129.641,393.417,127.684"/>
<path fill="#FFFFFF" d="M384.627,137.435c0.791-0.432,1.616-0.828,2.483-1.197c0.047-0.021,0.098-0.043,0.147-0.064
	c0.021-0.01,0.041-0.019,0.063-0.028c-0.004,0.003-0.006,0.006-0.009,0.008c1.853-0.78,4.371-0.942,7.01-0.28
	c3.098,0.775,5.611,2.489,6.859,4.434c-1.875,1.162-4.807,1.512-7.904,0.732c-2.986-0.75-5.432-2.37-6.72-4.235
	c-0.39,0.349-0.765,0.71-1.13,1.076c3.453,2.004,6.452,4.67,9.051,8.081c-1.023,1.622-1.536,2.436-2.561,4.055
	c-1.979-4.479-4.391-8.21-7.301-11.283c-2.778,3.049-4.885,6.722-6.872,11.227c-1.023-1.619-1.532-2.433-2.56-4.055
	c2.61-3.423,5.306-6.027,8.617-7.998c-0.368-0.364-0.746-0.718-1.129-1.064c-1.301,1.847-3.731,3.452-6.695,4.196
	c-3.1,0.78-6.03,0.43-7.905-0.732c1.25-1.945,3.763-3.659,6.862-4.434c2.583-0.647,5.042-0.502,6.886,0.234
	C383.576,136.811,384.627,137.435,384.627,137.435"/>
<path fill="#FFFFFF" d="M376.02,127.684c2.64,1.957,4.444,4.555,4.984,6.869c-2.123,0.34-4.974-0.498-7.618-2.458
	c-2.646-1.946-4.446-4.549-4.989-6.861C370.52,124.894,373.374,125.733,376.02,127.684"/>
<path fill="#FFFFFF" d="M373.251,133.471c-1.428,1.793-4.091,3.189-7.244,3.597c-3.154,0.403-6.033-0.295-7.792-1.673
	c1.431-1.788,4.094-3.187,7.251-3.594C368.618,131.399,371.497,132.092,373.251,133.471"/>
<path fill="#FFFFFF" d="M350.605,98.958c-0.339-2.114,0.253-4.987,1.746-7.687c1.499-2.703,3.533-4.577,5.382-5.197
	c0.336,2.119-0.254,4.987-1.742,7.692C354.495,96.462,352.458,98.342,350.605,98.958"/>
<path fill="#FFFFFF" d="M351.95,107.117c-2.129-0.356-4.639-2.073-6.665-4.79c-2.031-2.719-3.087-5.786-3.011-8.174
	c2.126,0.354,4.639,2.068,6.665,4.787C350.967,101.659,352.023,104.721,351.95,107.117"/>
<path fill="#FFFFFF" d="M355.193,98.801c1.679,1.502,3.065,4.395,3.587,7.877c0.519,3.489,0.045,6.727-1.105,8.752
	c-1.675-1.502-3.067-4.392-3.586-7.88C353.566,104.065,354.043,100.824,355.193,98.801"/>
<path fill="#FFFFFF" d="M359.659,123.74c-2.109,0.488-4.995-0.155-7.742-1.92c-2.748-1.77-4.691-4.241-5.361-6.511
	c2.104-0.488,4.991,0.154,7.738,1.924C357.045,119.001,358.983,121.469,359.659,123.74"/>
<path fill="#FFFFFF" d="M358.075,125.432c3.126,0.627,5.71,2.217,7.033,4.1c-1.833,1.253-4.745,1.737-7.87,1.114
	c-3.121-0.63-5.7-2.217-7.027-4.101C352.044,125.292,354.958,124.806,358.075,125.432"/>
<path fill="#FFFFFF" d="M366.448,128.036c-2.003-0.857-4.117-3.139-5.568-6.287c-1.447-3.14-1.884-6.388-1.339-8.707
	c2.009,0.86,4.123,3.144,5.574,6.29C366.559,122.478,366.99,125.722,366.448,128.036"/>
<path fill="#FFFFFF" d="M360.225,67.311c1.808-2.906,4.173-4.862,6.261-5.423c0.266,2.375-0.546,5.529-2.35,8.436
	c-1.806,2.908-4.175,4.862-6.259,5.423C357.609,73.372,358.417,70.214,360.225,67.311"/>
<path fill="#FFFFFF" d="M357.286,78.658c2.216-1.993,4.703-3.007,6.628-2.905c-0.313,2.12-1.728,4.613-3.942,6.606
	c-2.221,1.994-4.701,3.008-6.629,2.904C353.658,83.143,355.071,80.655,357.286,78.658"/>
<path fill="#FFFFFF" d="M351.659,70.766c0.185-3.535,1.291-6.569,2.818-8.261c1.333,1.878,2.114,5.038,1.93,8.57
	c-0.185,3.524-1.292,6.566-2.817,8.256C352.253,77.455,351.472,74.291,351.659,70.766"/>
<path fill="#FFFFFF" d="M348.437,72.756c1.682,1.486,3.094,4.371,3.637,7.853c0.539,3.485,0.085,6.722-1.053,8.753
	c-1.681-1.487-3.095-4.364-3.637-7.85C346.842,78.03,347.299,74.79,348.437,72.756"/>
<path fill="#FFFFFF" d="M342.392,81.06c2.017,0.823,4.169,3.062,5.668,6.179c1.5,3.115,1.981,6.348,1.474,8.678
	c-2.017-0.82-4.172-3.059-5.667-6.177C342.369,86.625,341.884,83.388,342.392,81.06"/>
<path fill="#FFFFFF" d="M412.196,130.646c-3.126,0.623-6.037,0.139-7.87-1.115c1.329-1.882,3.907-3.472,7.029-4.099
	c3.123-0.627,6.033-0.14,7.869,1.113C417.899,128.429,415.322,130.016,412.196,130.646"/>
<path fill="#FFFFFF" d="M417.519,121.82c-2.75,1.765-5.636,2.408-7.741,1.92c0.672-2.271,2.612-4.739,5.361-6.507
	c2.748-1.77,5.635-2.412,7.738-1.924C422.207,117.579,420.271,120.049,417.519,121.82"/>
<path fill="#FFFFFF" d="M422.951,111.676c-2.748,1.769-5.636,2.412-7.741,1.924c0.673-2.274,2.616-4.741,5.364-6.508
	c2.744-1.768,5.636-2.411,7.738-1.924C427.64,107.44,425.697,109.908,422.951,111.676"/>
<path fill="#FFFFFF" d="M348.862,107.092c2.749,1.767,4.691,4.234,5.361,6.508c-2.104,0.488-4.992-0.155-7.74-1.924
	c-2.749-1.768-4.69-4.236-5.362-6.508C343.226,104.681,346.117,105.324,348.862,107.092"/>
</svg>
